<svg width="60" height="53" viewBox="0 0 60 53" fill="none" xmlns="http://www.w3.org/2000/svg">
<path d="M54.375 7H39.75V16.75H20.25V7H5.625C2.88281 7 0.75 9.23438 0.75 11.875V47.625C0.75 50.3672 2.88281 52.5 5.625 52.5H54.375C57.0156 52.5 59.25 50.3672 59.25 47.625V11.875C59.25 9.23438 57.0156 7 54.375 7ZM30 23.25C33.5547 23.25 36.5 26.1953 36.5 29.75C36.5 33.4062 33.5547 36.25 30 36.25C26.3438 36.25 23.5 33.4062 23.5 29.75C23.5 26.1953 26.3438 23.25 30 23.25ZM39.4453 46H20.4531C19.4375 46 18.5234 44.9844 18.9297 44.0703C19.7422 41.4297 22.1797 39.5 25.125 39.5H25.9375C27.1562 40.1094 28.4766 40.3125 30 40.3125C31.4219 40.3125 32.7422 40.1094 33.9609 39.5H34.875C37.7188 39.5 40.1562 41.4297 40.9688 44.0703C41.375 44.9844 40.4609 46 39.4453 46ZM36.5 3.75C36.5 2.02344 34.9766 0.5 33.25 0.5H26.75C24.9219 0.5 23.5 2.02344 23.5 3.75V13.5H36.5V3.75Z" fill="#21293A"/>
</svg>
