<svg width="62" height="54" viewBox="0 0 62 54" fill="none" xmlns="http://www.w3.org/2000/svg">
<path d="M59.5391 46.2891L35.1641 3.9375C33.3359 0.789062 28.5625 0.6875 26.7344 3.9375L2.35938 46.2891C0.53125 49.4375 2.86719 53.5 6.625 53.5H55.2734C59.0312 53.5 61.3672 49.5391 59.5391 46.2891ZM31 37.4531C33.5391 37.4531 35.6719 39.5859 35.6719 42.125C35.6719 44.7656 33.5391 46.7969 31 46.7969C28.3594 46.7969 26.3281 44.7656 26.3281 42.125C26.3281 39.5859 28.3594 37.4531 31 37.4531ZM26.5312 20.6953C26.4297 19.9844 27.0391 19.375 27.75 19.375H34.1484C34.8594 19.375 35.4688 19.9844 35.3672 20.6953L34.6562 34.5078C34.5547 35.2188 34.0469 35.625 33.4375 35.625H28.4609C27.8516 35.625 27.3438 35.2188 27.2422 34.5078L26.5312 20.6953Z" fill="#21293A"/>
</svg>
