<svg width="46" height="47" viewBox="0 0 46 47" fill="none" xmlns="http://www.w3.org/2000/svg">
<path d="M42.1953 20.1484C41.1797 19.1328 39.6562 19.2344 38.6406 20.1484L27.0625 32.4375V3.1875C27.0625 1.86719 25.9453 0.75 24.625 0.75H21.375C19.9531 0.75 18.9375 1.86719 18.9375 3.1875V32.4375L7.25781 20.1484C6.24219 19.2344 4.71875 19.1328 3.70312 20.1484L1.46875 22.3828C0.554688 23.2969 0.554688 24.9219 1.46875 25.8359L21.2734 45.5391C22.1875 46.5547 23.7109 46.5547 24.7266 45.5391L44.4297 25.8359C45.3438 24.9219 45.3438 23.3984 44.4297 22.3828L42.1953 20.1484Z" fill="#21293A"/>
</svg>
