<svg width="60" height="47" viewBox="0 0 60 47" fill="none" xmlns="http://www.w3.org/2000/svg">
<path d="M54.375 0.75H5.625C2.88281 0.75 0.75 2.98438 0.75 5.625V41.375C0.75 44.1172 2.88281 46.25 5.625 46.25H54.375C57.0156 46.25 59.25 44.1172 59.25 41.375V5.625C59.25 2.98438 57.0156 0.75 54.375 0.75ZM18.625 10.5C22.1797 10.5 25.125 13.4453 25.125 17C25.125 20.6562 22.1797 23.5 18.625 23.5C14.9688 23.5 12.125 20.6562 12.125 17C12.125 13.4453 14.9688 10.5 18.625 10.5ZM30 34.5703C30 35.6875 28.9844 36.5 27.6641 36.5H9.48438C8.26562 36.5 7.25 35.6875 7.25 34.5703V32.6406C7.25 29.3906 10.2969 26.75 14.0547 26.75H14.5625C15.7812 27.3594 17.1016 27.5625 18.625 27.5625C20.0469 27.5625 21.3672 27.3594 22.5859 26.75H23.0938C26.8516 26.75 30 29.3906 30 32.6406V34.5703ZM52.75 29.1875C52.75 29.6953 52.3438 30 51.9375 30H37.3125C36.8047 30 36.5 29.6953 36.5 29.1875V27.5625C36.5 27.1562 36.8047 26.75 37.3125 26.75H51.9375C52.3438 26.75 52.75 27.1562 52.75 27.5625V29.1875ZM52.75 22.6875C52.75 23.1953 52.3438 23.5 51.9375 23.5H37.3125C36.8047 23.5 36.5 23.1953 36.5 22.6875V21.0625C36.5 20.6562 36.8047 20.25 37.3125 20.25H51.9375C52.3438 20.25 52.75 20.6562 52.75 21.0625V22.6875ZM52.75 16.1875C52.75 16.6953 52.3438 17 51.9375 17H37.3125C36.8047 17 36.5 16.6953 36.5 16.1875V14.5625C36.5 14.1562 36.8047 13.75 37.3125 13.75H51.9375C52.3438 13.75 52.75 14.1562 52.75 14.5625V16.1875Z" fill="#21293A"/>
</svg>
