<svg width="66" height="50" viewBox="0 0 66 50" fill="none" xmlns="http://www.w3.org/2000/svg">
<path d="M63.875 43H2.125C1.21094 43 0.5 43.8125 0.5 44.625V47.875C0.5 48.7891 1.21094 49.5 2.125 49.5H63.875C64.6875 49.5 65.5 48.7891 65.5 47.875V44.625C65.5 43.8125 64.6875 43 63.875 43ZM8.625 32.2344C9.23438 32.9453 10.1484 33.25 11.0625 33.25H24.3672C25.4844 33.25 26.5 33.0469 27.4141 32.5391L56.9688 17.6094C59.6094 16.1875 62.0469 14.2578 63.7734 11.6172C65.6016 8.77344 65.8047 6.64062 65.0938 5.21875C64.2812 3.69531 62.5547 2.57812 59.1016 2.375C56.1562 2.17188 53.1094 2.98438 50.3672 4.40625L40.4141 9.48438L18.1719 1.15625C17.8672 0.953125 17.5625 0.851562 17.1562 0.851562C16.8516 0.851562 16.5469 0.851562 16.3438 0.953125L9.64062 4.40625C8.52344 4.91406 8.32031 6.33594 9.13281 7.25L24.9766 17.2031L14.5156 22.5859L7.20312 18.8281C6.89844 18.7266 6.59375 18.625 6.39062 18.625C6.08594 18.625 5.78125 18.7266 5.57812 18.8281L1.41406 20.9609C0.398438 21.4688 0.09375 22.8906 0.90625 23.8047L8.625 32.2344Z" fill="#21293A"/>
</svg>
