<svg width="40" height="53" viewBox="0 0 40 53" fill="none" xmlns="http://www.w3.org/2000/svg">
<path d="M12.6875 7.8125C12.6875 11.875 15.9375 15.125 20 15.125C23.9609 15.125 27.3125 11.875 27.3125 7.8125C27.3125 3.85156 23.9609 0.5 20 0.5C15.9375 0.5 12.6875 3.85156 12.6875 7.8125ZM38.4844 8.01562C37.2656 6.69531 35.1328 6.69531 33.9141 8.01562L25.0781 16.75H14.8203L5.98438 8.01562C4.76562 6.69531 2.63281 6.69531 1.41406 8.01562C0.09375 9.23438 0.09375 11.3672 1.41406 12.5859L11.0625 22.2344V49.25C11.0625 51.0781 12.4844 52.5 14.3125 52.5H15.9375C17.6641 52.5 19.1875 51.0781 19.1875 49.25V37.875H20.8125V49.25C20.8125 51.0781 22.2344 52.5 24.0625 52.5H25.6875C27.4141 52.5 28.9375 51.0781 28.9375 49.25V22.2344L38.4844 12.5859C39.8047 11.3672 39.8047 9.23438 38.4844 8.01562Z" fill="#21293A"/>
</svg>
