<svg width="47" height="53" viewBox="0 0 47 53" fill="none" xmlns="http://www.w3.org/2000/svg">
<path d="M42.6875 13.6016C40.4531 13.5 38.625 15.4297 38.625 17.6641V26.5H37.8125V8.625C37.8125 6.39062 35.8828 4.46094 33.6484 4.5625C31.4141 4.5625 29.6875 6.39062 29.6875 8.52344V26.5H28.875V4.66406C28.875 2.42969 26.9453 0.5 24.7109 0.601562C22.4766 0.601562 20.75 2.42969 20.75 4.5625V26.5H19.9375V8.72656C19.9375 6.49219 18.0078 4.5625 15.7734 4.66406C13.5391 4.66406 11.8125 6.49219 11.8125 8.625V32.5938L8.5625 28.2266C7.24219 26.3984 4.70312 25.9922 2.875 27.3125C1.04688 28.6328 0.640625 31.1719 1.96094 33L14.7578 50.5703C15.5703 51.7891 17.0938 52.5 18.7188 52.5H38.7266C40.9609 52.5 42.9922 50.9766 43.5 48.7422L46.1406 37.3672C46.5469 35.9453 46.6484 34.4219 46.6484 32.8984V17.5625C46.75 15.4297 44.9219 13.6016 42.6875 13.6016Z" fill="#21293A"/>
</svg>
