<svg width="52" height="39" viewBox="0 0 52 39" fill="none" xmlns="http://www.w3.org/2000/svg">
<path d="M50.9844 12.8984C48.6484 14.7266 45.7031 16.9609 35.3438 24.4766C33.3125 26 29.5547 29.3516 26 29.3516C22.3438 29.3516 18.6875 26 16.5547 24.4766C6.19531 16.9609 3.25 14.7266 0.914062 12.8984C0.507812 12.5938 0 12.8984 0 13.4062V34.125C0 36.8672 2.13281 39 4.875 39H47.125C49.7656 39 52 36.8672 52 34.125V13.4062C52 12.8984 51.3906 12.5938 50.9844 12.8984ZM26 26C28.3359 26.1016 31.6875 23.0547 33.4141 21.8359C46.9219 12.0859 47.9375 11.1719 50.9844 8.73438C51.5938 8.32812 52 7.61719 52 6.80469V4.875C52 2.23438 49.7656 0 47.125 0H4.875C2.13281 0 0 2.23438 0 4.875V6.80469C0 7.61719 0.304688 8.32812 0.914062 8.73438C3.96094 11.1719 4.97656 12.0859 18.4844 21.8359C20.2109 23.0547 23.5625 26.1016 26 26Z" fill="#21293A"/>
</svg>
