<svg width="66" height="47" viewBox="0 0 66 47" fill="none" xmlns="http://www.w3.org/2000/svg">
<path d="M20 23.5C26.1953 23.5 31.375 18.4219 31.375 12.125C31.375 5.92969 26.1953 0.75 20 0.75C13.7031 0.75 8.625 5.92969 8.625 12.125C8.625 18.4219 13.7031 23.5 20 23.5ZM27.7188 26.75H26.9062C24.7734 27.7656 22.4375 28.375 20 28.375C17.4609 28.375 15.125 27.7656 12.9922 26.75H12.1797C5.67969 26.75 0.5 32.0312 0.5 38.5312V41.375C0.5 44.1172 2.63281 46.25 5.375 46.25H34.625C37.2656 46.25 39.5 44.1172 39.5 41.375V38.5312C39.5 32.0312 34.2188 26.75 27.7188 26.75ZM49.25 23.5C54.6328 23.5 59 19.1328 59 13.75C59 8.36719 54.6328 4 49.25 4C43.8672 4 39.5 8.36719 39.5 13.75C39.5 19.1328 43.8672 23.5 49.25 23.5ZM54.125 26.75H53.7188C52.2969 27.2578 50.7734 27.5625 49.25 27.5625C47.625 27.5625 46.1016 27.2578 44.6797 26.75H44.375C42.2422 26.75 40.3125 27.3594 38.6875 28.375C41.125 31.0156 42.75 34.5703 42.75 38.5312V42.3906C42.75 42.5938 42.6484 42.7969 42.6484 43H60.625C63.2656 43 65.5 40.8672 65.5 38.125C65.5 31.9297 60.3203 26.75 54.125 26.75Z" fill="#21293A"/>
</svg>
