<svg width="60" height="53" viewBox="0 0 60 53" fill="none" xmlns="http://www.w3.org/2000/svg">
<path d="M10.5 13.5C14.0547 13.5 17 10.6562 17 7C17 3.44531 14.0547 0.5 10.5 0.5C6.84375 0.5 4 3.44531 4 7C4 10.6562 6.84375 13.5 10.5 13.5ZM10.5 31.4766V31.375C10.5 30.1562 11.0078 29.0391 11.8203 28.2266L19.1328 21.2188C19.3359 21.1172 19.5391 21.0156 19.7422 20.9141C18.8281 18.4766 16.3906 16.8516 13.75 16.75H7.25C3.59375 16.75 0.75 19.6953 0.75 23.25V33C0.75 34.8281 2.17188 36.25 4 36.25V49.25C4 51.0781 5.42188 52.5 7.25 52.5H13.75C15.4766 52.5 17 51.0781 17 49.25V39.5L11.8203 34.7266C11.0078 33.9141 10.3984 32.6953 10.3984 31.4766H10.5ZM49.5 13.5C53.0547 13.5 56 10.6562 56 7C56 3.44531 53.0547 0.5 49.5 0.5C45.8438 0.5 43 3.44531 43 7C43 10.6562 45.8438 13.5 49.5 13.5ZM52.75 16.75H46.25C43.5078 16.8516 41.0703 18.4766 40.1562 20.9141C40.3594 21.0156 40.5625 21.1172 40.7656 21.3203L48.0781 28.2266C48.8906 29.0391 49.5 30.1562 49.5 31.4766C49.5 32.6953 48.8906 33.8125 48.0781 34.7266L43 39.5V49.25C43 51.0781 44.4219 52.5 46.25 52.5H52.75C54.4766 52.5 56 51.0781 56 49.25V36.25C57.7266 36.25 59.25 34.8281 59.25 33V23.25C59.25 19.6953 56.3047 16.75 52.75 16.75ZM45.8438 30.5625L38.5312 23.6562C38.3281 23.4531 38.0234 23.25 37.7188 23.25C37.0078 23.25 36.5 23.8594 36.5 24.4688V28.125H23.5V24.4688C23.5 23.8594 22.8906 23.25 22.2812 23.25C21.875 23.25 21.5703 23.4531 21.3672 23.6562L14.0547 30.5625C13.8516 30.7656 13.75 31.0703 13.75 31.4766C13.75 31.7812 13.8516 32.0859 14.0547 32.2891L21.3672 39.1953C21.5703 39.3984 21.875 39.6016 22.1797 39.6016C22.8906 39.6016 23.3984 38.9922 23.3984 38.3828H23.5V34.625H36.5V38.3828C36.5 38.9922 37.0078 39.6016 37.7188 39.6016C38.0234 39.6016 38.3281 39.3984 38.5312 39.1953L45.8438 32.2891C46.0469 32.0859 46.25 31.7812 46.25 31.4766C46.25 31.0703 46.0469 30.7656 45.8438 30.5625Z" fill="#21293A"/>
</svg>
