<svg width="375" height="736" viewBox="0 0 375 736" fill="none" xmlns="http://www.w3.org/2000/svg">
<g opacity="0.15" clip-path="url(#clip0_355_212)">
<g mask="url(#mask0_355_212)">
<path fill-rule="evenodd" clip-rule="evenodd" d="M241.634 588.122C232.491 588.124 223.554 590.843 215.953 595.936C208.352 601.029 202.428 608.266 198.931 616.733C195.433 625.2 194.519 634.516 196.304 643.504C198.09 652.491 202.493 660.746 208.959 667.225C215.425 673.704 223.663 678.116 232.63 679.903C241.598 681.69 250.893 680.772 259.339 677.264C267.786 673.757 275.006 667.818 280.085 660.199C285.165 652.579 287.876 643.621 287.876 634.457C287.876 628.371 286.68 622.345 284.356 616.723C282.032 611.1 278.625 605.992 274.331 601.689C270.037 597.386 264.939 593.974 259.329 591.646C253.719 589.318 247.706 588.12 241.634 588.122Z" fill="#FFC200"/>
<path fill-rule="evenodd" clip-rule="evenodd" d="M362.255 670.714C355.762 670.714 349.414 672.643 344.015 676.258C338.616 679.873 334.408 685.012 331.922 691.024C329.437 697.036 328.787 703.652 330.053 710.035C331.32 716.418 334.447 722.281 339.038 726.883C343.629 731.484 349.479 734.618 355.847 735.888C362.216 737.157 368.817 736.505 374.816 734.014C380.814 731.524 385.941 727.306 389.548 721.894C393.155 716.483 395.08 710.121 395.079 703.613C395.078 694.888 391.62 686.521 385.464 680.351C379.309 674.182 370.96 670.715 362.255 670.714Z" fill="#FFC200"/>
<path fill-rule="evenodd" clip-rule="evenodd" d="M350.658 597.696C353.587 594.187 355.599 590.001 356.51 585.517C357.291 581.598 357.342 577.567 356.659 573.629C358.383 574.003 360.416 574.141 361.871 573.029C362.988 572.182 363.398 570.891 363.398 569.536C363.405 567.711 362.972 565.911 362.136 564.29C360.222 560.581 356.469 558.215 352.668 556.771C352.254 554.29 351.648 551.845 350.855 549.458L351.008 549.507C356.991 551.432 362.601 554.357 368.163 557.234L368.535 557.424C367.392 560.111 366.633 563.096 365.929 565.868C365.583 567.219 365.24 568.659 364.771 569.973C363.185 574.394 363.156 581.062 363.751 585.689C363.941 587.175 364.222 588.648 364.593 590.099C360.335 592.878 355.875 595.332 351.25 597.439L350.68 597.7M246.608 740.169C244.843 741.919 243.138 743.732 241.526 745.62C239.193 748.311 237.095 751.197 235.253 754.247C234.739 755.109 234.267 755.99 233.835 756.896C232.297 760.139 231.229 763.915 231.601 767.53C231.973 770.982 233.596 773.874 236.515 775.739C237.155 779.821 239.665 783.874 242.721 786.56C244.282 787.977 246.137 789.028 248.153 789.638C250.249 790.276 252.509 790.101 254.482 789.146C256.63 788.086 258.138 786.209 259.187 784.109C260.684 783.657 262.046 782.842 263.152 781.735C264.693 780.243 265.442 777.53 265.97 775.504C267.21 770.788 268.145 765.848 269.131 761.064C270.095 756.374 272.076 751.736 273.911 747.31C276.402 741.318 280.24 732.863 278.234 726.326C278.006 725.582 277.705 724.864 277.336 724.18C276.149 721.982 273.576 721.647 271.35 721.307C269.124 720.967 266.693 720.561 264.924 718.938C262.795 716.979 262.188 713.714 262.114 710.71C266.6 712.878 271.348 714.454 276.238 715.4C283.181 716.744 291.152 716.893 297.805 714.094C301.155 717.079 305.12 719.038 309.677 719.318C311.902 719.44 314.131 719.176 316.266 718.538C316.305 721.457 316.727 724.357 317.521 727.165L317.614 728.124C317.635 728.353 317.704 728.576 317.817 728.776C317.93 728.977 318.084 729.151 318.269 729.288C318.476 729.805 318.725 730.305 319.014 730.781C319.018 730.792 319.024 730.802 319.032 730.811C319.617 731.777 320.346 732.646 321.195 733.389C324.546 736.348 329.363 737.21 333.708 736.982C339.527 736.68 345.323 734.493 350.316 731.561C355.792 728.344 360.654 724.064 364.835 719.292C375.009 707.669 381.696 692.054 384.774 676.983C384.957 676.087 385.147 675.192 385.269 674.289C386.055 669.188 385.336 664.711 380.616 662.278C380.593 660.782 380.368 659.295 379.946 657.86C379.518 656.401 378.801 655.043 377.839 653.867C376.852 652.68 375.578 651.767 374.138 651.214C372.071 650.484 369.836 650.378 367.709 650.909C366.775 648.985 365.457 647.274 363.837 645.882C362.101 644.369 360.009 643.324 357.758 642.849C356.314 642.529 354.817 642.548 353.382 642.903C351.948 643.259 350.614 643.941 349.485 644.897C345.573 648.256 343.026 654.629 341.321 659.935C339.531 658.706 337.501 657.874 335.365 657.494C331.969 656.923 328.689 657.718 325.748 659.461C324.949 659.947 324.191 660.497 323.481 661.106C323.44 660.897 323.399 660.688 323.355 660.476C323.039 658.916 322.689 657.361 322.305 655.811C321.027 650.796 320.132 645.691 319.628 640.539C319.576 639.961 319.531 639.383 319.49 638.804C330.558 636.875 340.964 634.065 351.112 629.069C362.791 623.319 373.226 615.204 382.999 606.681H383.226C387.406 606.543 391.278 606.331 395.236 604.793C400.15 602.883 404.014 599.346 407.316 595.32L408.66 594.659C411.315 593.349 414.196 592.017 416.713 590.469C418.269 589.514 419.769 588.387 420.532 586.67C420.919 585.754 421.123 584.77 421.136 583.775C421.195 582.767 420.935 581.766 420.391 580.917C419.129 578.965 416.519 578.17 413.842 577.898C416.27 576.159 418.611 574.185 420.268 572.033C422.13 569.626 423.049 567.118 422.818 564.245C425.577 563.04 428.503 561.387 430.599 559.361C431.396 558.629 432.055 557.758 432.542 556.79C433.149 555.484 433.19 554.048 432.326 552.85C432.02 552.435 431.635 552.085 431.193 551.821C430.75 551.557 430.26 551.384 429.75 551.313C428.633 551.119 426.504 549.883 425.506 549.305C422.9 547.79 420.313 546.134 417.751 544.514C404.695 536.249 391.569 528.365 376.9 523.205C373.428 521.982 369.866 521.033 366.246 520.365C362.595 519.689 358.899 519.292 355.189 519.179C350.916 519.048 346.639 519.276 342.404 519.861C338.723 520.363 335.085 521.148 331.523 522.208C330.145 521.136 328.722 520.125 327.252 519.175C325.329 517.935 323.341 516.801 321.296 515.776C320.864 515.555 320.425 515.343 319.985 515.138C319.155 513.509 318.208 511.943 317.152 510.451C319.394 508.753 321.526 506.915 323.537 504.947C329.185 499.522 334.467 493.429 339.493 487.433C344.962 480.903 349.195 473.377 351.514 465.157C353.067 459.649 353.86 453.388 353.119 447.679C352.916 445.836 352.453 444.031 351.745 442.317C351.038 440.732 349.798 439.135 347.929 439.008C346.44 438.911 345.26 439.728 344.523 440.978C343.477 442.75 335.722 447.899 333.834 449.209C320.95 458.142 308.147 467.44 297.965 479.515C294.659 483.457 291.983 487.889 290.031 492.653C288.736 495.854 287.669 499.143 286.837 502.496C282.213 501.35 274.351 499.884 271.573 503.496C270.808 504.553 270.479 505.866 270.657 507.16C270.922 509.772 271.663 511.962 273.308 514.044C270.974 513.277 268.487 513.096 266.067 513.518C264.507 513.838 263.095 514.661 262.047 515.861C259.984 518.123 258.927 521.589 258.398 524.567C258.327 524.973 258.26 525.384 258.205 525.794L257.936 526.063C251.738 532.372 246.023 540.742 243.175 549.197C241.696 549.56 240.27 550.111 238.931 550.839C235.234 552.857 231.906 556.495 231.445 560.846C231.306 561.968 231.434 563.107 231.817 564.171L231.873 564.298C232.095 564.866 232.43 565.383 232.856 565.818C233.283 566.253 233.793 566.598 234.356 566.831C234.774 566.999 235.217 567.098 235.666 567.126C234.616 576.29 236.307 585.1 241.686 592.849C241.924 593.193 242.17 593.536 242.431 593.872C238.538 591.893 234.772 589.674 231.154 587.226C231.303 584.614 230.38 582.215 227.543 580.827C226.969 580.553 226.369 580.338 225.752 580.185C225.898 579.857 226.035 579.532 226.173 579.204C227.941 574.894 229.639 568.439 229.248 563.756C229.133 562.365 229.174 560.891 229.185 559.492C229.218 555.682 229.289 551.111 228.15 547.477C227.405 545.148 226.095 542.764 223.571 542.1C220.592 541.324 217.826 543.443 215.868 545.421C214.357 546.954 213.5 549.574 212.976 552.249L212.923 552.126C211.807 549.447 210.652 546.772 209.439 544.13C207.801 540.563 205.91 536.667 203.609 533.503C201.956 531.223 199.264 528.216 196.096 529.089C189.897 530.802 189.931 538.6 191.096 545.089L190.992 544.984C188.315 542.234 182.779 536.884 178.524 538.35C177.495 538.717 176.621 539.425 176.048 540.357C173.725 543.94 173.442 547.354 175.084 551.346C176.13 553.861 177.891 556.387 179.797 558.701C176.283 558.141 172.117 558.406 171.235 562.469C170.993 563.427 170.937 564.423 171.071 565.402C171.369 567.268 172.527 568.734 173.777 570.062C175.81 572.208 178.245 574.245 180.479 576.197L181.596 577.185C183.747 581.928 186.566 586.35 190.821 589.469C193.531 591.458 196.405 592.629 199.484 593.637C199.432 593.786 199.383 593.939 199.342 594.092C198.847 595.875 199.049 597.781 199.908 599.42C200.737 600.982 201.951 602.305 203.434 603.264C205.524 604.635 207.948 605.409 210.444 605.502C210.615 605.502 210.79 605.502 210.973 605.502C216.589 611.173 222.809 616.209 229.52 620.521C238.54 626.327 248.197 630.704 258.231 634.371C255.196 640.341 250.454 645.838 246.228 650.879C240.458 657.759 234.829 664.573 230.801 672.669C227.603 679.057 225.234 685.828 223.749 692.819C222.015 701.169 221.624 710.307 224.103 718.565C226.676 727.102 232.014 733.65 240.037 737.661C242.145 738.706 244.345 739.556 246.608 740.199" fill="#21293A"/>
<path fill-rule="evenodd" clip-rule="evenodd" d="M364.861 592.118C367.839 598.532 373.293 604.693 380.299 606.443C380.358 606.634 380.39 606.832 380.396 607.032C380.386 607.533 380.183 608.01 379.83 608.364C379.242 608.964 378.514 609.406 377.712 609.652C376.273 610.112 374.737 610.173 373.267 609.827C372.452 609.637 370.907 608.558 370.24 608.058C368.546 606.778 367.015 605.293 365.684 603.637C363.822 601.323 362.333 598.532 361.998 595.54C361.89 594.514 361.789 592.674 363.003 592.215C363.606 592.031 364.245 591.998 364.864 592.118M369.302 588.902C369.166 588.529 368.949 588.191 368.667 587.913C368.385 587.634 368.045 587.421 367.672 587.29C365.84 586.652 363.879 586.478 361.964 586.782C357.307 587.685 356.227 591.92 356.674 596.111C357.102 600.152 358.997 603.868 361.514 607.002C363.177 609.063 365.099 610.899 367.232 612.465C368.528 613.416 370.493 614.704 372.072 615.058C374.503 615.629 377.043 615.521 379.417 614.745C381.099 614.209 382.616 613.249 383.821 611.957C385.081 610.602 385.773 608.814 385.757 606.961C385.714 605.424 385.242 603.93 384.395 602.648C384.193 602.325 383.924 602.049 383.607 601.838C383.29 601.628 382.931 601.488 382.556 601.428C378.516 600.778 375.285 598.129 372.846 594.973C371.409 593.111 370.218 591.071 369.306 588.902" fill="#21293A"/>
<path fill-rule="evenodd" clip-rule="evenodd" d="M261.458 602.603C255.677 601.775 249.88 599.767 244.612 597.379C237.539 594.148 230.838 589.939 224.602 585.294L224.516 585.23C223.813 584.704 223.098 584.07 222.458 583.484L221.873 582.95C222.745 581.484 223.502 579.952 224.137 578.368C225.778 574.368 227.413 568.294 227.052 563.943C226.616 558.693 227.655 553.26 226.046 548.137C225.559 546.581 224.736 544.723 223.012 544.249C220.898 543.671 218.791 545.604 217.428 546.981C215.194 549.219 214.695 555.331 214.368 558.48C214.342 558.753 214.301 559.54 214.223 560.111C213.169 558.536 211.315 553.984 210.891 552.988C209.852 550.529 208.81 548.07 207.719 545.637C206.23 542.279 204.577 538.749 202.615 535.656C201.468 533.846 199.223 530.514 196.658 531.22C189.38 533.227 193.464 547.451 195.594 553.675C193.87 551.436 192.053 549.197 190.158 547.111C188.122 544.872 182.746 538.902 179.269 540.369C178.698 540.619 178.214 541.035 177.88 541.563C175.989 544.477 175.754 547.26 177.102 550.499C178.919 554.872 183.334 559.622 186.804 563.111C183.133 561.529 174.41 558.156 173.346 562.951C173.214 563.507 173.172 564.082 173.219 564.652C173.375 566.283 174.433 567.589 175.52 568.727C177.445 570.753 179.768 572.678 181.871 574.521L183.461 576.014C185.46 580.491 188.096 584.749 192.098 587.682C195.448 590.129 199.231 591.286 203.121 592.469L202.875 592.842L203.486 593.633C218.973 613.558 237.342 624.603 260.758 632.92L261.228 633.088C258.193 640.151 252.684 646.543 247.881 652.27C242.237 658.987 236.69 665.703 232.748 673.628C221.136 696.96 217.826 732.031 250.379 738.829L251.023 738.964C245.856 743.721 240.711 749.325 237.115 755.381C234.036 760.557 231.318 769.045 237.07 773.452L238.559 774.605C238.559 774.687 238.559 774.769 238.585 774.851C238.857 777.321 239.989 779.799 241.407 781.818C243.574 784.911 247.434 788.254 251.481 787.739C254.061 787.411 255.859 785.609 257.024 783.392L257.672 782.165C259.149 781.919 260.512 781.214 261.566 780.15C262.746 779 263.383 776.486 263.8 774.926C265.029 770.247 265.956 765.348 266.931 760.605C267.932 755.754 269.935 751.004 271.834 746.426C273.278 742.952 274.812 739.337 275.776 735.695C276.581 732.617 277.024 729.169 275.799 726.135C275.669 725.814 275.521 725.5 275.356 725.195C274.637 723.867 272.325 723.665 270.981 723.456C268.171 723.023 265.285 722.527 263.134 720.49C259.75 717.285 259.634 711.385 259.98 707.083C271.067 713.471 287.47 716.676 298.043 711.516L298.33 711.565C301.747 714.964 305.958 717.124 310.861 717.098C313.48 717.075 316.061 716.457 318.407 715.288C318.311 717.244 318.354 719.204 318.537 721.154L319.204 727.923L321.259 721.46C322.245 718.288 324.077 715.117 325.782 712.281C327.089 710.109 328.455 707.964 329.717 705.766C330.811 703.867 331.928 701.785 332.58 699.684C335.186 691.251 337.472 682.759 340.331 674.397V674.356L343.127 664.352L342.546 663.782C338.142 659.431 332.394 658.091 326.858 661.367C325.369 662.252 323.667 663.767 322.122 665.356L321.932 665.129L320.186 656.367V656.338C318.697 650.304 317.432 643.465 317.208 636.961L317.975 636.83C329.27 634.935 339.869 632.166 350.174 627.092C361.875 621.33 372.336 613.118 382.109 604.551L382.273 604.484C386.621 604.245 390.262 604.353 394.469 602.719C399.092 600.92 402.737 597.495 405.823 593.685L407.748 592.648C410.257 591.417 412.997 590.155 415.38 588.7C416.724 587.879 418.083 586.894 418.652 585.361C418.845 584.822 418.951 584.257 418.969 583.685C419.177 578.779 409.87 579.775 405.92 580.35C410.175 577.883 415.674 574.432 418.556 570.682C420.692 567.898 421.184 565.152 420.108 561.85C419.925 561.254 419.567 560.728 419.08 560.339C416.102 558.007 409.368 562.383 406.821 564.025C404.446 565.555 402.123 567.227 399.871 568.958C403.534 563.499 411.158 550.816 404.643 546.988C402.357 545.641 399.327 548.279 397.752 549.731C395.061 552.212 392.54 555.208 390.247 558.048C388.564 560.118 386.922 562.219 385.284 564.324C384.622 565.174 381.692 569.04 380.259 570.316C380.791 566.615 382.254 559.868 380.523 556.82C379.581 555.167 377.988 552.738 375.839 552.716C374.097 552.716 372.802 554.294 371.945 555.63V555.656V555.682C370.643 557.942 369.638 560.361 368.956 562.88C368.349 565.066 367.884 567.297 367.217 569.465C367.087 569.883 366.953 570.301 366.804 570.712C365.412 574.592 365.348 580.253 365.773 584.32C365.991 586.598 366.44 588.849 367.113 591.036L366.335 591.57C361.495 594.864 355.848 597.812 350.52 600.189C346.622 601.931 341.827 603.857 337.49 604.696C337.49 604.696 325.309 607.838 318.15 607.984C295.746 598.913 284.775 602.954 261.451 602.622" fill="#72A8D8"/>
<path fill-rule="evenodd" clip-rule="evenodd" d="M313.485 679.125C317.208 673.487 325.879 663.491 333.257 663.55C336.064 663.573 339.94 665.789 341.924 668.699L342.963 664.968C342.963 664.968 339.787 660.64 336.061 660.267C332.334 659.894 328.377 659.08 323.436 664.371C318.496 669.662 314.371 674.752 313.482 679.113" fill="white"/>
<path fill-rule="evenodd" clip-rule="evenodd" d="M247.907 652.278C242.263 658.994 236.716 665.711 232.774 673.636C221.162 696.971 217.852 732.038 250.405 738.837L251.049 738.971L250.952 739.057C252.468 738.978 253.879 738.941 254.973 738.975C259.537 739.113 261.25 735.676 261.25 735.676C234.903 735.751 227.312 720.751 229.282 698.662C231.251 676.572 247.896 652.278 247.896 652.278" fill="white"/>
<path fill-rule="evenodd" clip-rule="evenodd" d="M216.583 582.711C216.583 582.711 237.747 605.756 266.287 605.61L261.447 602.603C261.447 602.603 252.281 602.375 237.911 593.972C223.541 585.57 218.992 580.79 218.992 580.79L216.583 582.711Z" fill="white"/>
<path fill-rule="evenodd" clip-rule="evenodd" d="M378.404 663.625C378.512 661.901 378.32 660.171 377.839 658.513C376.268 653.356 371.971 651.894 367.076 653.364L366.409 653.521C365.653 651.205 364.266 649.147 362.404 647.58C359.221 644.853 354.388 643.603 350.915 646.595C345.703 651.091 342.78 662.42 341.016 669.035C340.562 670.726 340.126 672.483 339.56 674.14C337.442 680.341 335.584 686.632 333.741 692.923C332.967 695.58 332.252 698.486 331.206 701.046C330.037 703.927 328.179 706.815 326.56 709.457L325.484 711.218C322.588 715.99 317.625 723.96 320.864 729.587C323.47 733.926 328.913 735.042 333.6 734.811C345.022 734.214 355.855 726.229 363.178 717.871C372.984 706.677 379.346 691.826 382.459 677.33C383.475 672.58 384.633 666.983 379.458 664.177L378.404 663.625Z" fill="white"/>
<path fill-rule="evenodd" clip-rule="evenodd" d="M378.404 663.625C378.512 661.901 378.32 660.171 377.839 658.513C376.268 653.356 371.971 651.894 367.076 653.364L366.409 653.521C365.653 651.205 364.266 649.147 362.404 647.58C359.221 644.853 354.388 643.603 350.915 646.595C345.703 651.091 342.78 662.42 341.016 669.035C340.796 669.852 340.584 670.681 340.353 671.509C340.997 671.961 340.353 675.808 342.766 667.838C345.178 659.867 353.562 649.181 360.553 652.629C367.545 656.077 366.067 663.252 366.067 663.252C368.364 657.147 374.629 655.677 376.979 657.875C379.328 660.073 376.32 670.897 376.32 670.897C376.32 670.897 373.293 686.371 366.577 698.953C359.861 711.535 347.456 724.557 336.794 722.509C326.132 720.46 330.711 705.147 330.711 705.147C330.314 704.919 329.893 704.735 329.456 704.598C328.533 706.259 327.506 707.889 326.556 709.449L325.48 711.21C322.584 715.983 317.621 723.953 320.86 729.579C323.466 733.919 328.909 735.035 333.596 734.803C345.018 734.206 355.851 726.221 363.174 717.863C372.98 706.669 379.343 691.819 382.455 677.323C383.475 672.58 384.633 666.983 379.458 664.177L378.404 663.625Z" fill="#CDDCE8"/>
<path fill-rule="evenodd" clip-rule="evenodd" d="M196.96 590.372C198.955 591.204 201.033 591.838 203.14 592.48L202.894 592.853L203.505 593.644C218.992 613.569 237.357 624.614 260.773 632.935C261.769 632.141 262.45 631.018 262.694 629.767C263.811 623.886 261.451 622.01 261.451 622.01C216.777 607.965 204.96 582.801 204.96 582.801C200.988 584.82 198.449 587.443 196.949 590.376" fill="#3482BD"/>
<path fill-rule="evenodd" clip-rule="evenodd" d="M317.208 637.282V636.961L317.975 636.83C329.27 634.935 339.869 632.162 350.174 627.092C361.875 621.33 372.336 613.118 382.109 604.551L382.273 604.484C383.896 604.394 385.422 604.353 386.915 604.252L385.798 597.062L377.693 597.282C363.919 614.424 332.167 625.181 317.551 626.233C317.551 626.233 316.289 634.461 317.223 637.282" fill="#3482BD"/>
<path fill-rule="evenodd" clip-rule="evenodd" d="M222.521 583.529L222.454 583.469L221.869 582.935C222.742 581.474 223.5 579.947 224.137 578.368C225.778 574.368 227.413 568.294 227.052 563.943C226.616 558.693 227.651 553.26 226.043 548.137C225.559 546.581 224.736 544.723 223.012 544.249C220.898 543.671 218.791 545.604 217.428 546.981C215.194 549.219 214.695 555.331 214.368 558.48C214.342 558.753 214.301 559.54 214.223 560.111C213.169 558.536 211.315 553.984 210.891 552.988C209.852 550.529 208.81 548.07 207.719 545.634C206.23 542.294 204.577 538.749 202.615 535.656C201.468 533.846 199.223 530.514 196.658 531.22C189.38 533.227 193.464 547.451 195.593 553.675C193.87 551.417 192.053 549.197 190.158 547.111C188.122 544.872 182.746 538.902 179.269 540.369C178.697 540.618 178.213 541.034 177.88 541.563C175.993 544.477 175.754 547.26 177.102 550.518C178.919 554.887 183.334 559.637 186.804 563.126C183.133 561.544 174.414 558.171 173.346 562.965C173.214 563.522 173.172 564.097 173.219 564.667C173.375 566.298 174.433 567.603 175.52 568.742C177.445 570.768 179.764 572.693 181.871 574.536L183.461 576.029C185.46 580.506 188.096 584.764 192.098 587.697C195.15 589.935 198.587 591.092 202.127 592.174C215.403 592.57 219.729 584.969 219.729 584.969C220.6 584.395 221.527 583.912 222.495 583.525" fill="white"/>
<path fill-rule="evenodd" clip-rule="evenodd" d="M193.952 550.876C194.639 551.724 195.313 552.58 195.973 553.443C193.847 547.223 189.76 532.992 197.038 530.984C198.978 530.734 201.572 533.723 202.723 535.529C204.737 538.692 206.53 541.991 208.087 545.402C209.178 547.839 210.221 550.294 211.259 552.753C211.68 553.745 213.515 558.238 214.569 559.842C215.008 556.13 215.34 549.231 217.8 546.742C219.133 545.387 221.3 543.454 223.385 543.999C223.56 544.046 223.731 544.11 223.895 544.19C222.171 546.055 220.704 548.384 220.462 551.119C219.968 555.922 219.029 560.668 217.659 565.298C217.659 565.298 211.285 556.085 209.748 550.223C208.21 544.361 201.785 531.537 198.423 533.928C195.061 536.32 200.604 553.749 200.604 553.749L197.172 556.424C197.172 556.424 195.817 553.943 193.955 550.887M186.733 562.424C183.338 558.988 179.22 554.454 177.485 550.275C176.138 547.033 176.369 544.253 178.264 541.339C178.597 540.812 179.079 540.397 179.648 540.145C180.535 539.772 181.179 540.406 182.221 540.809C180.754 542.574 180.702 545.738 181.696 548.596C182.69 551.454 192.276 561.014 192.276 561.014L189.7 563.999C189.7 563.999 188.442 563.294 186.722 562.421M202.172 591.808C198.706 590.711 195.62 589.771 192.459 587.454C188.457 584.521 185.825 580.26 183.829 575.786L182.236 574.294C180.129 572.45 177.809 570.521 175.881 568.499C174.798 567.357 173.737 566.051 173.58 564.424C173.536 563.854 173.58 563.28 173.711 562.723C174.053 561.182 175.2 560.484 176.689 560.305C176.343 561.779 177.433 564.365 179.403 566.238C181.225 567.978 183.35 569.369 185.672 570.342C185.672 570.342 201.956 595.148 220.116 583.353C220.116 583.353 219.625 584.544 218.675 586.338L217.808 587.394C215.862 589.11 213.58 590.399 211.107 591.176C208.635 591.954 206.027 592.204 203.452 591.909C203.038 591.864 202.621 591.831 202.202 591.808" fill="#CDDCE8"/>
<path fill-rule="evenodd" clip-rule="evenodd" d="M254.776 701.684C274.109 711.233 285.91 708.919 300.939 700.744C302.015 699.904 303.493 699.43 303.959 699.703C305.347 700.505 308.34 705.333 312.149 703.214C315.957 701.095 323.317 691.778 323.317 691.778C323.317 691.778 321.043 699.117 320.019 705.263C318.995 711.408 318.924 714.699 318.924 714.699C318.924 714.699 315.823 718.247 309.99 716.636C304.156 715.024 298.348 711.576 298.348 711.576C298.348 711.576 291.911 715.524 278.617 713.553C265.323 711.583 258.64 706.942 254.776 701.684Z" fill="#3482BD"/>
<path fill-rule="evenodd" clip-rule="evenodd" d="M276.51 728.941C276.411 727.988 276.182 727.052 275.828 726.161C275.698 725.84 275.55 725.526 275.385 725.221C274.667 723.893 272.355 723.691 271.011 723.482C268.2 723.05 265.315 722.553 263.163 720.516C259.779 717.311 259.664 711.412 260.01 707.109C260.01 707.109 254.147 704.688 244.802 691.837C244.802 691.837 237.304 714.535 252.62 725.508C260.896 731.43 269.931 730.788 276.499 728.941" fill="#3482BD"/>
<path fill-rule="evenodd" clip-rule="evenodd" d="M243.19 747.057C240.942 749.653 238.918 752.437 237.141 755.378C234.062 760.553 231.344 769.042 237.092 773.448L238.6 774.597C238.6 774.683 238.6 774.765 238.626 774.847C238.898 777.318 240.029 779.795 241.448 781.814C243.615 784.907 247.475 788.25 251.522 787.735C254.102 787.407 255.9 785.605 257.065 783.388L257.713 782.161C259.19 781.916 260.552 781.211 261.607 780.146C262.787 778.997 263.424 776.482 263.841 774.922C265.069 770.243 265.996 765.344 266.972 760.601C267.973 755.751 269.976 751.001 271.875 746.422C273.319 742.949 274.853 739.333 275.817 735.691C276.621 732.613 277.064 729.161 275.84 726.132C275.71 725.81 275.562 725.496 275.397 725.191C274.678 723.863 272.366 723.661 271.022 723.453C269.63 723.27 268.254 722.982 266.905 722.591C267.471 722.781 272.724 724.87 269.649 735.572C266.398 746.874 247.311 765.795 243.659 748.631C243.543 748.086 243.39 747.548 243.201 747.023" fill="white"/>
<path fill-rule="evenodd" clip-rule="evenodd" d="M293.974 696.796C324.628 679.826 309.446 625.398 309.446 625.398C309.446 625.398 311.49 627.67 314.118 626.204C316.747 624.737 310.395 614.416 310.395 614.416C307.503 609.267 293.177 607.588 283.483 607.368C286.737 609.275 290.612 611.89 291.301 613.868C291.189 614.107 279.332 611.857 277.69 611.234C276.599 610.823 273.677 609.588 271.834 608.804C267.493 610.928 263.592 615.189 263.189 617.424C262.679 620.278 266.54 619.401 266.54 619.401C266.093 626.282 265.624 632.786 262.095 638.155C258.7 643.326 254.411 648.002 250.818 652.707C229.654 680.513 265.948 712.311 293.985 696.789" fill="white"/>
<path fill-rule="evenodd" clip-rule="evenodd" d="M312.164 617.577C311.222 615.775 310.388 614.416 310.388 614.416C307.495 609.267 293.166 607.588 283.475 607.368C286.729 609.275 290.605 611.89 291.293 613.868C291.182 614.107 279.324 611.857 277.682 611.234C276.592 610.823 273.669 609.588 271.823 608.804C271.473 608.976 271.119 609.178 270.777 609.36C274.872 620.439 285.24 631.662 295.381 629.23C305.6 626.778 312.175 617.577 312.175 617.577" fill="#CDDCE8"/>
<path fill-rule="evenodd" clip-rule="evenodd" d="M360.646 685.307C354.47 684.505 346.995 690.848 343.949 699.486C340.904 708.124 343.439 715.759 349.616 716.561C355.792 717.363 363.267 711.016 366.316 702.382C369.365 693.748 366.823 686.113 360.646 685.311" fill="#E9839E"/>
<path fill-rule="evenodd" clip-rule="evenodd" d="M353.547 659.39C350.178 660.17 347.818 664.401 348.264 668.841C348.711 673.281 351.808 676.248 355.174 675.468C358.539 674.688 360.907 670.457 360.457 666.017C360.006 661.576 356.912 658.61 353.547 659.39Z" fill="#E9839E"/>
<path d="M404.278 579.67C402.945 576.645 401.274 573.781 399.297 571.133C402.752 568.398 417.167 557.354 418.768 562.275C419.598 564.835 419.483 567.171 417.431 569.838C415.324 572.581 411.255 575.689 404.278 579.67ZM195.586 555.91C192.99 557.959 190.634 560.297 188.565 562.88C182.861 557.212 179.734 553.156 178.405 549.954C177.109 546.842 177.601 544.555 179.06 542.301C181.882 537.954 192.958 552.376 195.586 555.91ZM244.836 686.867C244.795 686.745 244.73 686.631 244.646 686.534C244.561 686.436 244.459 686.356 244.343 686.299C244.228 686.241 244.103 686.207 243.974 686.198C243.845 686.189 243.716 686.205 243.594 686.246C243.472 686.287 243.359 686.351 243.262 686.436C243.164 686.521 243.085 686.624 243.027 686.739C242.97 686.855 242.935 686.981 242.926 687.11C242.917 687.238 242.933 687.368 242.974 687.49C243.99 690.469 245.394 693.3 247.148 695.912C248.949 698.578 251.075 701.008 253.477 703.147C255.082 704.561 256.808 705.831 258.636 706.941C257.345 722.773 265.408 724.02 270.799 724.852C272.497 725.117 273.87 725.329 274.15 725.882C276.834 730.852 273.818 738.109 270.568 745.926C268.617 750.613 266.588 755.497 265.587 760.34C264.169 767.232 263.238 771.68 262.475 774.586C261.76 777.314 261.239 778.556 260.613 779.161C258.971 780.765 256.98 781.165 255.2 780.631C254.184 780.316 253.268 779.742 252.538 778.967C251.697 778.077 251.077 777.001 250.729 775.825C249.679 772.407 250.435 767.56 254.75 762.068C254.905 761.865 254.974 761.608 254.942 761.354C254.91 761.1 254.78 760.869 254.579 760.711C254.379 760.553 254.124 760.48 253.87 760.508C253.617 760.536 253.384 760.664 253.223 760.863C248.451 766.937 247.639 772.43 248.871 776.396C249.311 777.863 250.087 779.206 251.139 780.318C252.101 781.335 253.309 782.086 254.645 782.5C255.027 782.614 255.416 782.696 255.811 782.747C254.962 784.362 253.949 785.385 252.855 785.922C251.674 786.477 250.328 786.567 249.084 786.176C247.586 785.708 246.209 784.916 245.052 783.855C242.401 781.53 240.327 778.012 239.966 774.698C239.719 772.309 239.852 769.896 240.361 767.549C240.957 764.891 241.885 762.318 243.123 759.892C243.223 759.663 243.231 759.403 243.145 759.168C243.059 758.932 242.886 758.739 242.661 758.629C242.437 758.518 242.178 758.499 241.94 758.574C241.702 758.65 241.501 758.814 241.381 759.034C240.085 761.614 239.12 764.347 238.507 767.168C238.135 768.87 237.935 770.605 237.911 772.347C237.115 771.725 236.458 770.941 235.982 770.048C235.507 769.154 235.225 768.171 235.153 767.161C234.885 764.609 235.555 761.586 237.055 758.433C237.427 757.65 237.844 756.866 238.306 756.086C240.051 753.212 242.036 750.49 244.24 747.952C246.726 745.071 249.383 742.342 252.196 739.781C254.45 740.269 256.794 740.148 258.986 739.43C259.107 739.389 259.219 739.324 259.314 739.239C259.41 739.155 259.488 739.052 259.544 738.937C259.601 738.822 259.634 738.697 259.642 738.57C259.65 738.442 259.633 738.314 259.591 738.193C259.55 738.072 259.485 737.96 259.401 737.864C259.317 737.768 259.214 737.69 259.1 737.634C258.985 737.577 258.86 737.544 258.733 737.536C258.606 737.528 258.478 737.545 258.357 737.587C255.58 738.542 253.037 737.99 251.22 737.587L250.681 737.471C247.546 736.848 244.505 735.821 241.634 734.415C234.136 730.665 229.684 724.643 227.532 717.505C225.358 710.274 225.514 701.889 227.253 693.531C228.678 686.843 230.947 680.365 234.006 674.252C237.982 666.263 243.611 659.546 248.961 653.166C254.508 646.55 259.757 640.285 262.676 633.259C262.676 633.237 262.694 633.215 262.705 633.189C263.105 632.223 263.457 631.241 263.763 630.241C263.8 630.118 263.812 629.99 263.799 629.862C263.787 629.735 263.749 629.611 263.689 629.499C263.629 629.386 263.547 629.286 263.448 629.205C263.349 629.124 263.235 629.063 263.113 629.026C262.991 628.989 262.863 628.977 262.736 628.989C262.609 629.002 262.485 629.04 262.373 629.1C262.26 629.161 262.161 629.243 262.08 629.342C261.999 629.441 261.938 629.555 261.901 629.677C261.7 630.334 261.477 630.98 261.231 631.625C250.975 627.976 240.96 623.607 231.448 617.48C221.15 610.856 212.066 602.504 204.595 592.79C204.647 592.708 204.688 592.62 204.718 592.529C204.792 592.282 204.766 592.015 204.644 591.788C204.523 591.561 204.317 591.391 204.07 591.316L202.954 590.98C199.272 589.861 195.929 588.782 192.902 586.577C189.875 584.372 187.15 580.98 184.604 575.204C184.545 575.074 184.46 574.959 184.354 574.865L182.791 573.495C175.553 567.152 174.098 565.883 174.686 563.245C175.43 559.913 183.911 563.335 187.083 564.738C185.996 566.189 185.385 567.159 185.378 567.171C185.24 567.388 185.193 567.651 185.249 567.903C185.304 568.154 185.457 568.373 185.674 568.512C185.891 568.651 186.153 568.697 186.404 568.641C186.655 568.586 186.874 568.433 187.012 568.215C187.012 568.215 187.779 567.003 189.086 565.297C189.199 565.246 189.301 565.174 189.387 565.085C189.523 564.947 189.614 564.772 189.648 564.581C191.51 562.245 194.212 559.234 197.351 556.98C197.43 556.942 197.503 556.892 197.567 556.831C199.103 555.714 200.805 554.846 202.611 554.26C202.733 554.223 202.847 554.163 202.946 554.081C203.045 554 203.127 553.901 203.187 553.788C203.247 553.675 203.285 553.551 203.297 553.424C203.31 553.297 203.298 553.168 203.261 553.046C203.224 552.923 203.163 552.809 203.082 552.71C203.001 552.611 202.902 552.529 202.789 552.469C202.677 552.408 202.554 552.371 202.426 552.358C202.299 552.345 202.171 552.358 202.049 552.395C200.4 552.925 198.83 553.678 197.384 554.633C195.791 550.212 190.56 534.335 197.012 532.552C200.336 531.637 205.898 544.779 209.599 553.525C211.576 558.201 213.072 561.734 214.178 561.883C214.923 561.98 215.373 561.592 215.496 560.645C215.57 560.081 215.641 559.406 215.716 558.652V558.626C216.088 555.074 216.62 549.734 218.381 547.951C220.332 545.977 221.698 545.339 222.64 545.578C223.582 545.816 224.196 546.951 224.699 548.563C225.644 551.577 225.607 555.891 225.577 559.477C225.577 561.26 225.548 562.868 225.648 564.066C225.909 567.245 224.904 572.797 222.83 577.872C222.188 579.46 221.416 580.993 220.522 582.454C220.496 582.488 220.474 582.524 220.455 582.562C219.226 584.517 217.804 586.163 216.207 587.23C216.096 587.298 216 587.389 215.924 587.495C215.848 587.601 215.795 587.722 215.767 587.85C215.739 587.977 215.736 588.109 215.76 588.238C215.784 588.366 215.833 588.489 215.905 588.598C215.977 588.706 216.07 588.8 216.179 588.872C216.288 588.944 216.41 588.994 216.538 589.017C216.666 589.041 216.798 589.039 216.925 589.011C217.053 588.983 217.173 588.929 217.279 588.853C218.957 587.68 220.399 586.2 221.531 584.491C222.845 585.689 223.764 586.387 223.787 586.391C231.191 591.905 237.989 595.857 244.05 598.622C251.351 601.954 257.594 603.573 262.549 604.137L259.489 601.7C254.436 600.67 249.524 599.041 244.854 596.849C238.898 594.137 232.223 590.249 224.926 584.812C224.926 584.812 223.962 584.092 222.607 582.831C223.399 581.468 224.095 580.05 224.688 578.588C226.88 573.253 227.934 567.331 227.666 563.906C227.569 562.723 227.584 561.189 227.599 559.492C227.629 555.76 227.67 551.283 226.638 547.98C225.939 545.742 224.866 544.137 223.21 543.701C221.553 543.264 219.595 544.048 217.089 546.589C214.856 548.861 214.256 554.611 213.865 558.436L211.464 552.764C207.495 543.387 201.539 529.302 196.573 530.671C189.95 532.499 192.209 544.048 194.261 551.059C189.387 545.16 180.791 536.134 177.467 541.249C175.658 544.044 175.047 546.872 176.644 550.708C177.85 553.622 180.367 557.13 184.723 561.7C180.214 560.111 173.785 558.652 172.858 562.82C172.024 566.577 173.621 567.98 181.581 574.95L182.977 576.174C185.657 582.193 188.591 585.764 191.822 588.114C195.054 590.465 198.449 591.611 202.235 592.786C202.268 592.903 202.322 593.013 202.395 593.111C210.13 603.367 219.613 612.173 230.406 619.122C240.033 625.315 250.137 629.737 260.498 633.424C257.616 639.827 252.68 645.715 247.468 651.92C242.036 658.397 236.318 665.214 232.252 673.382C229.123 679.645 226.801 686.282 225.343 693.132C223.541 701.792 223.385 710.505 225.659 718.061C227.96 725.699 232.733 732.146 240.755 736.161C243.649 737.58 246.706 738.634 249.858 739.299C247.359 741.632 244.989 744.1 242.758 746.691C240.487 749.311 238.442 752.12 236.645 755.086C236.149 755.932 235.701 756.771 235.301 757.601C233.652 761.071 232.919 764.452 233.224 767.359C233.544 770.392 234.97 772.907 237.636 774.5C237.77 774.579 237.9 774.657 238.034 774.728V774.9C238.451 778.694 240.789 782.694 243.775 785.318C245.152 786.57 246.788 787.502 248.566 788.049C250.268 788.577 252.106 788.444 253.715 787.676C255.409 786.84 256.898 785.265 258.015 782.687C259.522 782.391 260.906 781.647 261.987 780.553C262.877 779.683 263.551 778.187 264.366 775.079C265.129 772.161 266.067 767.676 267.501 760.724C268.457 756.083 270.456 751.281 272.374 746.669C275.81 738.408 278.997 730.74 275.873 724.956C275.11 723.542 273.312 723.266 271.078 722.923C266.518 722.217 259.746 721.169 260.502 708.031C265.52 710.755 270.925 712.694 276.528 713.781C284.19 715.273 292.027 715.027 298.121 712.143C306.159 720.012 314.539 717.643 317.897 716.184C317.651 725.661 320.391 729.882 320.402 729.904L320.425 729.937C320.926 730.769 321.554 731.517 322.286 732.154C324.844 734.393 328.835 735.59 333.633 735.34C338.317 735.098 343.804 733.475 349.497 730.143C354.169 727.4 358.986 723.486 363.61 718.203C376.368 703.628 381.401 685.322 383.174 676.647C384.182 671.711 385.173 665.826 378.978 663.326C379.052 661.642 378.851 659.957 378.382 658.338C378.021 657.089 377.412 655.926 376.591 654.92C375.784 653.947 374.741 653.199 373.561 652.748C371.752 652.058 369.514 652.002 366.879 652.819L366.774 652.86C366.718 652.714 366.663 652.573 366.603 652.431C365.763 650.386 364.453 648.569 362.78 647.129C361.259 645.797 359.424 644.877 357.449 644.457C354.991 643.972 352.523 644.457 350.561 646.14C346.689 649.476 344.083 656.352 342.2 662.67C340.647 661.308 338.194 659.629 335.104 659.11C332.606 658.692 329.713 659.024 326.586 660.871C325.072 661.868 323.668 663.024 322.398 664.319C322.219 663.199 322.004 662.027 321.754 660.8C321.448 659.278 321.105 657.745 320.723 656.203C319.422 651.108 318.513 645.92 318.005 640.685C317.897 639.521 317.826 638.446 317.781 637.427C330.32 635.334 340.446 632.491 350.397 627.592C360.475 622.629 370.352 615.566 382.358 605.043L383.166 605.017C387.194 604.879 390.869 604.704 394.636 603.237C398.404 601.771 402.127 599.099 406.27 593.98L407.934 593.159C417.424 588.491 419.33 587.562 419.494 583.7C419.676 579.428 413.094 579.17 408.325 579.544C413.694 576.253 417.04 573.525 418.961 571.025C421.497 567.727 421.638 564.839 420.611 561.671C418.719 555.854 408.087 562.35 401.859 566.786C405.648 560.544 410.793 549.977 404.889 546.499C400.451 543.887 391.059 555.947 384.785 563.973L381.003 568.824C381.614 565.029 382.529 559.324 380.951 556.551C379.183 553.447 377.444 552.182 375.78 552.174C374.116 552.167 372.653 553.421 371.417 555.342L371.365 555.413C369.503 558.324 368.386 562.674 367.467 566.286C367.035 567.95 366.648 569.458 366.261 570.532C365.103 573.771 364.589 579.764 365.326 585.48C365.552 587.279 365.925 589.056 366.443 590.793C362.597 593.48 356.469 596.905 350.286 599.666C346.833 601.249 343.265 602.566 339.612 603.603C339.612 603.603 336.824 604.506 336.318 606.275C340.413 605.707 345.766 603.812 351.075 601.443C357.136 598.737 363.152 595.398 367.102 592.7C367.729 594.369 368.636 595.918 369.782 597.282C369.867 597.378 369.969 597.457 370.084 597.513C370.198 597.569 370.323 597.603 370.45 597.611C370.578 597.619 370.705 597.602 370.826 597.561C370.947 597.519 371.058 597.454 371.154 597.37C371.25 597.285 371.328 597.183 371.385 597.068C371.441 596.953 371.474 596.828 371.482 596.701C371.49 596.573 371.473 596.445 371.432 596.324C371.391 596.203 371.326 596.091 371.242 595.995C369.042 593.487 367.802 589.439 367.258 585.238C366.555 579.809 367.02 574.182 368.096 571.185C368.513 570.018 368.911 568.477 369.351 566.775C370.244 563.301 371.324 559.122 373.018 556.458L373.055 556.395C373.941 555.01 374.864 554.111 375.776 554.115C376.748 554.115 377.898 555.1 379.272 557.514C380.515 559.693 379.644 564.977 379.093 568.518C378.97 569.264 378.862 569.958 378.784 570.529C378.661 571.473 378.996 571.965 379.745 572.066C380.862 572.212 383.203 569.182 386.319 565.182C392.153 557.693 400.92 546.439 403.891 548.186C409.669 551.585 400.522 565.562 397.834 569.421C396.685 568.127 395.365 566.998 393.91 566.062C393.802 565.995 393.681 565.949 393.555 565.928C393.429 565.908 393.3 565.912 393.175 565.941C393.051 565.97 392.933 566.023 392.83 566.098C392.726 566.173 392.637 566.267 392.57 566.376C392.503 566.485 392.457 566.606 392.436 566.732C392.416 566.858 392.42 566.988 392.449 567.112C392.478 567.237 392.531 567.355 392.606 567.459C392.68 567.563 392.774 567.651 392.883 567.719C394.478 568.756 395.9 570.038 397.097 571.518C397.141 571.588 397.193 571.652 397.253 571.708C399.897 574.928 402.934 580.894 404.349 585.245C404.427 585.492 404.6 585.699 404.83 585.818C405.059 585.938 405.327 585.961 405.574 585.883C405.821 585.805 406.027 585.632 406.146 585.401C406.265 585.171 406.289 584.903 406.211 584.655C406.211 584.655 405.864 583.536 405.19 581.868C408.623 581.331 417.696 580.234 417.55 583.641C417.439 586.338 415.689 587.189 407.078 591.435L405.217 592.349C405.09 592.413 404.978 592.504 404.889 592.614C400.932 597.54 397.406 600.096 393.933 601.443C390.459 602.79 386.948 602.961 383.103 603.092L381.949 603.133H381.763H381.74H381.673H381.651H381.614H381.591H381.569H381.55C369.552 613.663 359.738 620.704 349.746 625.621C340.066 630.394 330.167 633.181 317.923 635.241C317.904 633.565 317.956 632.155 318.042 631.002C318.061 630.744 317.978 630.489 317.809 630.293C317.641 630.097 317.402 629.977 317.145 629.957C316.888 629.938 316.633 630.022 316.438 630.19C316.242 630.359 316.122 630.599 316.102 630.856C315.974 632.693 315.943 634.535 316.009 636.375V636.45C316.05 637.715 316.136 639.11 316.274 640.636C316.791 645.968 317.714 651.252 319.036 656.442C319.426 658.022 319.766 659.527 320.056 660.957C320.347 662.387 320.595 663.809 320.801 665.222C320.828 665.401 320.904 665.569 321.02 665.707C320.239 666.539 319.446 667.449 318.671 668.419C316.493 671.132 314.427 674.322 313.128 677.636C313.081 677.755 313.059 677.882 313.062 678.01C313.064 678.139 313.092 678.265 313.143 678.382C313.195 678.499 313.269 678.605 313.361 678.694C313.453 678.783 313.562 678.852 313.681 678.899C313.8 678.945 313.927 678.968 314.055 678.965C314.182 678.963 314.308 678.935 314.425 678.883C314.542 678.832 314.648 678.758 314.737 678.665C314.825 678.573 314.894 678.464 314.941 678.345C316.158 675.233 318.117 672.214 320.183 669.64C323.116 665.979 326.236 663.233 327.77 662.326C330.443 660.748 332.881 660.461 334.977 660.808C338.112 661.334 340.528 663.289 341.79 664.539C341.381 665.983 341.012 667.367 340.673 668.643C340.122 670.718 339.646 672.502 339.229 673.714C336.995 680.255 335.003 687.065 333.41 692.516C332.665 695.009 332.033 697.214 331.467 699.042C330.573 701.915 328.466 705.352 326.281 708.915C323.861 712.859 321.348 716.953 320.145 720.818C319.953 718.767 319.92 716.703 320.045 714.647C320.094 714.496 320.104 714.336 320.075 714.18C320.514 707.464 322.502 698.24 327.893 686.057C327.996 685.822 328.002 685.555 327.91 685.315C327.817 685.075 327.633 684.881 327.398 684.778C327.163 684.674 326.896 684.668 326.657 684.761C326.417 684.854 326.224 685.038 326.121 685.274C320.737 697.43 318.675 706.815 318.198 713.759C316.225 714.8 307.51 718.632 299.212 710.068L298.966 710.266L298.892 710.206H298.873H298.854H298.836H298.817H298.799H298.769H298.646C298.494 710.176 298.336 710.185 298.188 710.232H298.162H298.143H298.125H298.099H298.08H298.061H298.043C292.298 713.191 284.641 713.453 277.094 711.994C268.532 710.337 260.152 706.471 254.962 701.826C252.686 699.794 250.673 697.485 248.968 694.953C247.31 692.485 245.984 689.809 245.026 686.994M378.222 668.345C378.476 667.375 378.67 666.391 378.803 665.397C383.27 667.822 381.971 673.08 381.111 677.009C379.25 685.748 374.272 703.072 362.124 716.934C357.657 722.05 352.996 725.829 348.491 728.475C343.089 731.646 337.907 733.176 333.507 733.404C329.226 733.628 325.722 732.617 323.537 730.699C322.962 730.198 322.47 729.61 322.078 728.956L322.037 728.885C319.241 724.035 323.626 716.874 327.725 710.191C329.959 706.527 332.141 702.99 333.108 699.874C333.648 698.143 334.311 695.878 335.059 693.318C336.645 687.901 338.626 681.128 340.856 674.595C341.299 673.304 341.779 671.502 342.345 669.401C344.236 662.311 347.058 651.744 351.812 647.651C352.531 647.049 353.38 646.622 354.291 646.405C355.203 646.187 356.152 646.185 357.065 646.397C358.711 646.754 360.24 647.524 361.506 648.636C362.947 649.868 364.076 651.424 364.801 653.177C366.112 656.356 366.194 660.397 363.997 664.804C363.882 665.035 363.863 665.303 363.946 665.549C364.028 665.794 364.203 665.996 364.434 666.112C364.666 666.227 364.933 666.246 365.178 666.163C365.422 666.081 365.624 665.905 365.739 665.673C367.724 661.684 368.044 657.931 367.318 654.714C367.358 654.709 367.398 654.7 367.437 654.688C369.626 654.017 371.439 654.032 372.861 654.576C373.731 654.907 374.501 655.459 375.095 656.177C375.747 656.983 376.231 657.912 376.517 658.908C377.459 661.99 377.135 666.173 375.504 670.475C375.455 670.605 375.433 670.743 375.441 670.882C375.45 671.02 375.488 671.155 375.553 671.278C376.878 672.528 377.53 670.826 377.88 669.632C377.995 669.233 378.107 668.822 378.196 668.449L378.218 668.352" fill="#21293A"/>
<path fill-rule="evenodd" clip-rule="evenodd" d="M307.227 611.931C323.779 610.782 345.74 606.334 352.784 589.857C354.643 585.386 355.307 580.507 354.708 575.7C354.509 573.843 354.135 572.01 353.592 570.223C354.314 570.559 355.062 570.868 355.784 571.13C357.192 571.633 359.448 572.324 360.624 571.018C360.986 570.606 361.18 570.073 361.168 569.525C361.168 563.801 356.328 560.454 351.466 558.704L350.688 558.439L350.464 557.092C349.877 553.641 348.92 550.263 347.609 547.018L347.795 546.999C348.435 546.923 349.082 546.915 349.724 546.973C352.497 547.227 357.169 549.38 359.753 550.563C362.94 552.037 366.082 553.634 369.187 555.253C375.813 558.689 382.399 562.074 389.633 564.074C397.836 566.383 406.494 566.544 414.777 564.54C419.456 563.451 425.525 561.16 429.054 557.753C429.641 557.219 430.132 556.588 430.506 555.887C430.65 555.691 430.744 555.463 430.779 555.222C430.815 554.982 430.791 554.736 430.711 554.507C430.465 553.828 429.966 553.634 429.378 553.529C427.986 553.29 425.841 552.07 424.616 551.372C421.887 549.816 419.218 548.093 416.564 546.413C403.645 538.253 390.656 530.417 376.163 525.317C365.498 521.619 354.112 520.499 342.933 522.048L342.713 522.078C338.802 522.607 334.941 523.464 331.173 524.641L331.079 524.671L331.001 524.608C329.42 523.334 327.773 522.144 326.069 521.041C323.371 519.282 320.53 517.754 317.577 516.473L318.191 516.287L317.253 514.694C316.296 513.063 315.22 511.462 314.103 509.906L314.595 509.556C318.582 506.742 322.267 503.212 325.655 499.72C329.866 495.343 333.875 490.672 337.792 485.992C343.034 479.735 347.099 472.522 349.351 464.646C350.84 459.392 351.615 453.414 350.911 447.967C350.734 446.339 350.33 444.744 349.712 443.228C349.34 442.388 348.849 441.31 347.784 441.239C347.435 441.217 347.091 441.322 346.812 441.533C346.534 441.745 346.341 442.05 346.269 442.392C345.472 443.512 343.715 444.855 342.747 445.597C340.275 447.497 337.665 449.273 335.104 451.049C322.402 459.855 309.71 469.056 299.673 480.955C293.665 488.082 290.739 495.78 288.59 504.701L288.501 505.074C285.702 504.235 282.649 503.429 279.741 503.123C277.723 502.91 274.674 502.817 273.39 504.742C272.973 505.395 272.798 506.174 272.895 506.944C273.111 509.108 273.71 510.955 275.084 512.682C276.104 513.957 277.38 515.002 278.829 515.75C277.299 516.053 275.803 516.507 274.362 517.104C265.959 514.209 261.481 517.903 261.075 526.152C261.041 526.876 260.044 527.149 259.556 527.645C253.573 533.734 248.089 541.742 245.346 549.843L244.903 551.141C243.198 551.431 241.551 551.996 240.026 552.813C236.969 554.484 234.069 557.481 233.697 561.1C233.602 561.855 233.684 562.621 233.935 563.339C234.049 563.681 234.24 563.992 234.495 564.246C234.75 564.501 235.06 564.692 235.402 564.805C236.519 565.145 237.591 564.551 238.466 563.831C236.731 572.816 237.595 581.805 242.401 589.76C247.691 598.517 256.656 604.349 265.989 608.152C265.872 608.226 265.757 608.308 265.643 608.398C267.75 608.443 270.769 609.428 270.81 609.562C270.851 609.696 273.148 613.525 273.74 615.125C274.332 616.726 278.386 619.487 284.443 619.625C290.5 619.763 300.329 611.872 300.329 611.872L307.227 611.931Z" fill="#72A8D8"/>
<path fill-rule="evenodd" clip-rule="evenodd" d="M273.558 531.876C269.053 531.107 264.046 537.816 262.367 546.865C260.688 555.913 262.974 563.868 267.475 564.641C271.975 565.413 277.001 558.7 278.665 549.652C280.33 540.604 278.059 532.649 273.558 531.876Z" fill="#21293A"/>
<path fill-rule="evenodd" clip-rule="evenodd" d="M314.167 535.783C307.719 534.682 301.468 541.593 300.202 551.223C298.936 560.854 303.132 569.555 309.58 570.659C316.028 571.764 322.279 564.85 323.537 555.219C324.795 545.589 320.603 536.887 314.159 535.783" fill="#21293A"/>
<path fill-rule="evenodd" clip-rule="evenodd" d="M276.152 516.432C275.467 516.654 274.787 516.902 274.112 517.179C274.369 517.328 274.652 517.511 274.946 517.716C272.236 516.153 268.714 515.477 266.346 516.126C263.271 516.958 261.715 523.447 261.064 526.13L261.03 526.272V526.156C260.516 526.654 260.02 527.142 259.541 527.623C253.558 533.712 248.075 541.719 245.331 549.82L244.892 551.119H244.854C247.166 551.238 249.121 551.331 249.121 551.331C252.248 543.387 257.021 534.54 263.778 529.104C263.778 529.104 264.09 521.141 267.445 519.47C270.799 517.798 277.083 519.332 277.098 519.335L277.63 519.772L277.858 519.682C276.368 518.492 274.969 517.541 275.054 517.414C275.399 517.059 275.764 516.725 276.149 516.414M288.62 504.541L288.587 504.682L288.497 505.056C285.698 504.216 282.645 503.41 279.738 503.104C277.72 502.891 274.671 502.794 273.39 504.724C272.968 505.376 272.791 506.158 272.891 506.929C273.107 509.089 273.707 510.936 275.08 512.664C276.1 513.938 277.376 514.983 278.825 515.731L278.576 515.783L280.248 516.156L288.356 517.947C289.503 517.992 290.418 518.048 290.418 518.048C285.627 516.929 281.484 514.455 278.878 510.339C276.272 506.223 277.63 503.25 286.539 505.115C295.448 506.981 308.203 513.697 308.203 513.697C308.203 513.697 303.802 505.488 305.224 503.94C306.646 502.391 309.762 505.339 309.762 505.339C305.798 499.369 304.45 500.41 303.158 501.608C301.866 502.806 301.442 509.391 301.442 509.391L289.123 504.914L288.62 504.541Z" fill="white"/>
<path fill-rule="evenodd" clip-rule="evenodd" d="M314.974 511.168C314.684 510.742 314.386 510.324 314.085 509.906L314.576 509.556C318.567 506.742 322.249 503.212 325.637 499.72C329.866 495.343 333.875 490.672 337.792 485.992C343.034 479.735 347.099 472.522 349.351 464.642C350.84 459.392 351.615 453.414 350.911 447.967C350.734 446.339 350.33 444.744 349.712 443.228C349.34 442.388 348.849 441.31 347.784 441.239C347.435 441.217 347.091 441.322 346.812 441.533C346.534 441.745 346.341 442.05 346.269 442.392C345.472 443.512 343.715 444.855 342.747 445.597C341.154 446.825 339.504 447.997 337.844 449.15C337.635 457.209 336.649 466.81 333.511 472.802C327.279 484.69 313.925 491.772 313.925 491.772L310.421 505.022L314.468 511.22L314.971 511.168" fill="#72A8D8"/>
<path fill-rule="evenodd" clip-rule="evenodd" d="M349.686 443.168C349.314 442.336 348.823 441.303 347.784 441.239C347.435 441.217 347.091 441.322 346.812 441.533C346.534 441.745 346.341 442.05 346.269 442.392C345.468 443.512 343.715 444.855 342.747 445.597C340.275 447.497 337.665 449.273 335.104 451.049C322.402 459.855 309.71 469.056 299.673 480.955C293.665 488.082 290.739 495.78 288.591 504.701L288.501 505.074L288.285 505.011L288.401 505.716L292.217 506.641C292.217 506.641 294.48 496.433 300.172 486.795C305.865 477.157 320.704 465.008 335.886 455.418C344.292 450.116 348.026 445.881 349.686 443.157" fill="white"/>
<path fill-rule="evenodd" clip-rule="evenodd" d="M316.653 610.928C331.258 608.767 347.017 603.334 352.784 589.861C354.645 585.389 355.308 580.508 354.708 575.7C354.511 573.843 354.137 572.009 353.592 570.223C354.314 570.559 355.062 570.868 355.784 571.13C357.192 571.633 359.448 572.324 360.624 571.018C360.988 570.607 361.182 570.074 361.168 569.525C361.168 563.801 356.328 560.454 351.466 558.704L350.688 558.439L350.464 557.092C349.877 553.641 348.92 550.263 347.609 547.018L347.795 546.999C348.435 546.923 349.082 546.915 349.724 546.973C352.497 547.227 357.169 549.38 359.753 550.563C362.94 552.036 366.082 553.633 369.187 555.253C375.813 558.689 382.399 562.074 389.633 564.077C397.838 566.384 406.496 566.543 414.781 564.54C419.456 563.451 425.525 561.159 429.054 557.753C429.641 557.219 430.132 556.588 430.506 555.887C430.65 555.691 430.744 555.463 430.779 555.222C430.815 554.982 430.791 554.736 430.711 554.507C430.465 553.827 429.966 553.633 429.378 553.529C427.989 553.29 425.841 552.07 424.62 551.372C423.943 550.987 423.271 550.592 422.606 550.189C414.907 553.148 405.622 555.167 395.85 553.85C370.747 550.466 359.425 538.552 351.499 538.178C343.573 537.805 340.967 536.014 340.967 536.014C340.967 536.014 339.106 533.992 336.995 532.126C337.818 535.884 343.868 547.518 340.67 556.962C340.67 556.962 333.425 556.962 331.642 557.835C341.224 560.227 349.266 568.469 349.139 576.491L341.779 573.644C342.423 587.48 327.074 602.797 305.466 607.178C303.422 607.596 302.242 611.387 300.303 611.875L316.653 610.928Z" fill="#3482BD"/>
<path fill-rule="evenodd" clip-rule="evenodd" d="M428.581 558.186C428.741 558.044 428.898 557.898 429.05 557.753C429.637 557.218 430.128 556.587 430.502 555.887C430.646 555.691 430.74 555.463 430.776 555.222C430.811 554.982 430.788 554.736 430.707 554.507C430.461 553.827 429.962 553.633 429.374 553.529C427.982 553.29 425.838 552.07 424.613 551.372C421.884 549.816 419.215 548.092 416.56 546.413C403.646 538.253 390.656 530.417 376.163 525.317C365.498 521.619 354.112 520.499 342.933 522.048L342.713 522.078C338.809 522.602 334.955 523.457 331.195 524.634C332.148 526.761 333.138 528.619 333.138 528.619C333.138 528.619 344.348 523.746 362.653 526.007C380.958 528.268 403.56 544.421 415.67 552.432C419.61 555.081 423.979 557.025 428.581 558.178" fill="white"/>
<path fill-rule="evenodd" clip-rule="evenodd" d="M387.358 557.607C373.71 553.081 368.718 548.891 357.121 543.342C352.933 541.339 350.215 541.245 345.926 541.947C344.628 539.441 343.141 537.039 341.477 534.76C354.507 532.07 366.856 535.626 377.362 542.104C386.565 547.779 397.22 555.305 406.557 559.839C400.273 560.753 394.238 559.883 387.369 557.6" fill="#E4637A"/>
<path fill-rule="evenodd" clip-rule="evenodd" d="M402.886 560.171C398.914 558.853 393.836 556.577 387.403 552.79C364.399 539.253 361.428 537.492 351.995 538.928C351.995 538.928 353.35 540.563 354.973 542.439C351.89 541.32 349.433 541.372 345.915 541.947C344.617 539.441 343.13 537.039 341.466 534.76C354.496 532.07 366.845 535.626 377.351 542.104C386.565 547.779 397.22 555.305 406.557 559.839C405.344 560.014 404.122 560.124 402.897 560.171" fill="#CF415A"/>
<path fill-rule="evenodd" clip-rule="evenodd" d="M304.886 499.418C306.955 494.757 310.098 488.552 313.448 485.354C320.105 479.041 339.337 464.81 344.098 459.34C343.726 462.847 341.932 469.515 337.304 477C331.873 485.78 320.845 497.638 311.549 505.57C310.269 503.947 308.943 502.395 307.722 501.093C306.71 500.022 305.753 499.511 304.874 499.414" fill="#E4637A"/>
<path fill-rule="evenodd" clip-rule="evenodd" d="M310.466 501.634C310.466 501.634 313.519 501.347 316.665 500.985C314.937 502.612 313.221 504.153 311.561 505.571C310.28 503.947 308.955 502.395 307.733 501.093C306.721 500.018 305.764 499.507 304.886 499.41C306.955 494.75 310.098 488.545 313.448 485.347C320.105 479.034 339.337 464.802 344.098 459.332C343.939 460.707 343.677 462.068 343.313 463.403C341.828 466.031 340.055 468.484 338.026 470.716C329.885 479.563 311.966 490.866 310.477 501.627" fill="#CF415A"/>
<path fill-rule="evenodd" clip-rule="evenodd" d="M272.631 533.846C268.413 533.123 263.443 539.365 261.533 547.783C259.623 556.201 261.492 563.615 265.71 564.339C269.928 565.062 274.898 558.82 276.808 550.398C278.717 541.977 276.849 534.57 272.631 533.846Z" fill="white"/>
<path fill-rule="evenodd" clip-rule="evenodd" d="M271.692 540.301C268.569 539.768 265.073 543.503 263.874 548.645C262.676 553.786 264.247 558.395 267.378 558.928C270.509 559.462 273.997 555.727 275.196 550.585C276.394 545.443 274.823 540.835 271.689 540.301" fill="#21293A"/>
<path fill-rule="evenodd" clip-rule="evenodd" d="M265.896 549.249C265.248 552.413 266.242 555.197 268.174 555.529C270.106 555.861 272.269 553.615 273.074 550.481C272.072 552.037 270.43 552.958 268.833 552.686C267.236 552.413 266.127 551.018 265.896 549.249Z" fill="#237EB0"/>
<path fill-rule="evenodd" clip-rule="evenodd" d="M274.913 541.354C273.308 541.081 271.622 542.522 271.149 544.574C270.676 546.626 271.592 548.51 273.196 548.786C274.801 549.063 276.487 547.622 276.96 545.566C277.433 543.51 276.517 541.63 274.913 541.354Z" fill="white"/>
<path fill-rule="evenodd" clip-rule="evenodd" d="M313.381 537.649C307.29 536.607 301.096 543.092 299.562 552.133C298.028 561.174 301.714 569.353 307.804 570.394C313.895 571.435 320.09 564.954 321.623 555.91C323.157 546.865 319.475 538.693 313.381 537.649Z" fill="white"/>
<path fill-rule="evenodd" clip-rule="evenodd" d="M313.917 543.996C309.822 543.294 305.634 547.663 304.61 553.764C303.586 559.865 306.058 565.376 310.165 566.077C314.271 566.779 318.448 562.406 319.472 556.309C320.495 550.212 318.023 544.693 313.913 543.996" fill="#21293A"/>
<path fill-rule="evenodd" clip-rule="evenodd" d="M307.268 554.525C306.736 558.279 308.299 561.615 310.842 562.047C313.385 562.48 315.965 559.857 316.706 556.141C316.194 557.059 315.41 557.797 314.463 558.251C313.516 558.705 312.452 558.853 311.417 558.676C310.382 558.499 309.428 558.005 308.685 557.261C307.942 556.518 307.447 555.562 307.268 554.525Z" fill="#237EB0"/>
<path fill-rule="evenodd" clip-rule="evenodd" d="M318.198 545.316C316.091 544.943 314.044 546.633 313.627 549.07C313.21 551.507 314.587 553.768 316.698 554.13C318.809 554.492 320.857 552.805 321.274 550.376C321.69 547.947 320.309 545.678 318.198 545.316Z" fill="white"/>
<path fill-rule="evenodd" clip-rule="evenodd" d="M308.943 565.152C310.548 564.902 322.941 563.104 332.517 565.036C352.129 566.812 351.432 583.029 345.502 580.462C345.13 586.521 341.034 592.271 334.918 596.961C325.425 604.234 316.862 606.946 304.119 608.629C304.119 608.629 293.944 618.062 287.366 619.26C280.787 620.457 273.621 619.484 270.747 609.394C269.943 606.569 270.449 608.275 268.643 606.245C268.789 606.752 268.938 607.271 269.094 607.801C249.125 600.491 235.216 586.35 240.033 563.398C240.26 562.301 240.372 561.839 239.218 561.693C238.693 561.63 238.473 561.827 238.142 562.174C237.342 562.965 235.808 564.234 235.287 562.839C235.114 562.329 235.063 561.786 235.138 561.253C235.369 559.066 236.999 556.119 240.722 554.089C242.669 553.025 243.671 552.906 245.562 552.488C246.915 552.266 248.286 552.171 249.657 552.204C246.433 553.324 241.031 554.816 239.326 558.798C238.47 560.794 240.86 561.01 242.751 561.275L242.729 561.309C243.645 560.077 244.892 559.132 246.325 558.585C250.591 556.857 258.372 558.805 258.372 558.805C259.122 558.995 259.862 559.225 260.587 559.495C263.971 555.839 271.145 550.895 282.321 552.096C294.901 553.447 303.363 559.637 308.969 565.156" fill="white"/>
<path fill-rule="evenodd" clip-rule="evenodd" d="M312.156 577.174C312.156 577.174 302.037 583.864 291.219 581.544C280.4 579.223 276.886 571.488 276.949 571.611C276.979 571.667 274.965 574.432 271.506 575.42C267.809 576.48 262.53 575.656 258.573 572.006C258.573 572.006 256.712 576.144 262.821 578.208C266.473 579.445 270.267 580.212 274.112 580.491L276.387 579.506C276.387 579.506 281.93 585.238 285.385 586.036C288.84 586.835 296.524 588.678 305.548 584.107C314.572 579.536 314.003 578.551 314.003 578.551C313.975 578.337 313.905 578.13 313.795 577.944C313.685 577.758 313.539 577.596 313.365 577.468C313.19 577.341 312.992 577.25 312.782 577.202C312.571 577.154 312.353 577.15 312.141 577.189" fill="#CDDCE8"/>
<path fill-rule="evenodd" clip-rule="evenodd" d="M269.429 607.04C269.149 606.792 268.885 606.526 268.64 606.245C259.225 601.745 243.402 592.118 243.607 574.637C244.296 579.331 256.358 588.2 260.613 592.014C264.868 595.827 267.947 603.648 267.947 603.648C268.256 603.276 268.499 602.853 268.666 602.398C268.93 603.864 269.198 605.517 269.429 607.04Z" fill="#CDDCE8"/>
<path fill-rule="evenodd" clip-rule="evenodd" d="M346.246 570.734C351.008 575.816 349.37 582.122 345.502 580.461C345.13 586.517 341.034 592.271 334.918 596.961C325.425 604.234 316.862 606.946 304.119 608.629C304.119 608.629 303.341 609.349 302.078 610.413L315.086 595.469C321.523 590.655 342.129 589.577 342.717 574.01C342.717 574.01 349.228 580.581 346.239 570.734" fill="#CDDCE8"/>
<path fill-rule="evenodd" clip-rule="evenodd" d="M290.221 560.943C286.32 558.204 280.817 555.999 276.052 557.395C272.191 558.514 270.434 561.462 272.586 565.059C273.47 566.486 274.677 567.685 276.108 568.559C277.1 569.094 278.221 569.346 279.347 569.286C281.297 569.245 283.509 568.54 285.262 567.704C287.373 566.712 290.184 564.906 290.794 562.48L291.04 561.507L290.221 560.943Z" fill="#E4637A"/>
<path fill-rule="evenodd" clip-rule="evenodd" d="M290.221 560.943C288.615 559.811 286.879 558.876 285.05 558.159C286.301 562.338 282.28 567.973 274.998 565.189C273.948 564.789 272.93 564.305 271.957 563.741C272.123 564.2 272.334 564.641 272.586 565.059C273.47 566.486 274.677 567.684 276.108 568.559C277.1 569.094 278.221 569.346 279.347 569.286C281.297 569.245 283.509 568.54 285.262 567.704C287.373 566.712 290.184 564.906 290.794 562.48L291.04 561.506L290.221 560.943Z" fill="#CF415A"/>
<path fill-rule="evenodd" clip-rule="evenodd" d="M280.869 609.01C283.134 610.092 285.733 610.235 288.103 609.409C290.847 608.529 293.237 606.663 295.087 604.488C299.491 599.294 302.41 592.842 305.407 586.782L306.974 583.615L303.623 584.764C299.79 586.056 295.752 586.634 291.71 586.469C286.565 586.268 280.132 584.641 277.735 579.551L277.068 578.133L275.709 578.906C273.617 580.096 270.196 580.1 267.891 579.738L264.344 579.186L266.518 582.055C268.521 584.7 269.868 587.969 271.015 591.07C272.288 594.547 273.345 598.178 274.838 601.566C276.126 604.48 277.91 607.536 280.873 609.01" fill="#21293A"/>
<path fill-rule="evenodd" clip-rule="evenodd" d="M295.243 595.715C292.265 595.152 287.943 596.902 284.979 600.894C284.906 600.049 285 599.198 285.256 598.389C285.511 597.581 285.923 596.83 286.468 596.182C284.253 595.062 277.738 595.704 275.762 603.502C276.96 605.741 278.554 607.868 280.862 609.006C283.127 610.088 285.726 610.231 288.095 609.405C290.839 608.525 293.229 606.659 295.076 604.484C296.657 602.592 298.083 600.574 299.338 598.45C298.88 597.737 298.28 597.126 297.575 596.655C296.87 596.184 296.077 595.865 295.243 595.715Z" fill="#E4637A"/>
<path fill-rule="evenodd" clip-rule="evenodd" d="M299.338 598.45C298.468 597.097 297.103 596.14 295.537 595.782C292.656 600.439 285.586 608.976 277.913 605.588C277.532 605.416 277.139 605.273 276.737 605.159C277.746 606.786 279.169 608.114 280.858 609.01C283.123 610.091 285.722 610.235 288.092 609.409C290.835 608.528 293.225 606.663 295.076 604.487C296.656 602.593 298.082 600.574 299.338 598.45Z" fill="#CF415A"/>
<path fill-rule="evenodd" clip-rule="evenodd" d="M269.399 580.45C271.119 589.906 280.218 602.398 287.381 587.167C287.548 586.794 283.304 585.376 280.307 583.111C278.931 582.012 277.921 580.519 277.411 578.831C277.411 578.831 273.476 581.932 269.403 580.439" fill="white"/>
<path fill-rule="evenodd" clip-rule="evenodd" d="M275.966 579.939C275.966 579.939 275.78 583.499 277.455 589.249C274.432 587.129 273.978 580.018 273.956 580.032C273.539 580.279 274.835 576.816 275.959 579.939" fill="#21293A"/>
<path d="M311.561 505.571C310.28 503.947 308.955 502.395 307.737 501.093C306.721 500.022 305.764 499.511 304.886 499.414C305.935 497.045 307.078 494.698 308.277 492.552C309.93 489.597 311.683 487.037 313.463 485.351C316.78 482.205 322.323 477.757 327.841 473.336C334.613 467.91 341.343 462.515 344.11 459.336C343.737 462.843 341.943 469.511 337.315 476.996C335.123 480.541 331.065 485.903 325.726 491.787C321.3 496.676 316.568 501.278 311.561 505.567M313.705 508.403C313.415 508.003 313.117 507.604 312.815 507.205C317.913 502.839 322.73 498.155 327.238 493.179C332.677 487.183 336.816 481.713 339.054 478.093C344.013 470.056 345.874 462.847 346.179 459.224C346.256 458.52 346.246 457.81 346.15 457.108C345.938 455.914 345.327 455.452 344.404 455.802C343.948 456.022 343.589 456.404 343.399 456.873C342.282 459.157 334.441 465.425 326.564 471.739C321.039 476.168 315.488 480.616 312.045 483.869C310.098 485.735 308.221 488.444 306.479 491.559C304.821 494.585 303.329 497.699 302.011 500.888C301.574 501.546 301.247 502.272 301.044 503.037C300.545 504.891 300.464 506.834 300.805 508.723C298.404 507.794 294.327 506.294 290.009 505.041C290.866 501.298 292.015 497.629 293.445 494.067C295.248 489.658 297.723 485.557 300.783 481.91C311.508 469.194 325.935 459.194 335.927 452.265C341.999 448.038 346.47 444.937 347.698 442.855C347.762 442.75 347.62 442.687 347.698 442.691C347.829 442.691 348.071 443.097 348.402 443.81C348.961 445.195 349.325 446.652 349.482 448.138C350.52 456.142 348.67 470.743 336.694 485.045C329.654 493.448 324.635 498.783 321.006 502.268C317.376 505.753 315.205 507.343 313.75 508.35L313.705 508.403ZM345.926 541.947C344.63 539.442 343.143 537.04 341.478 534.764C347.116 533.599 352.928 533.552 358.584 534.626C365.698 535.951 372.068 538.839 377.362 542.089C379.86 543.63 382.619 545.413 385.489 547.268C392.41 551.745 399.971 556.63 406.546 559.824C404.312 560.15 402.051 560.255 399.796 560.137C396.185 559.947 392.149 559.178 387.358 557.589C378.326 554.604 373.17 551.794 367.344 548.634C364.328 546.992 361.13 545.253 357.121 543.335C355.263 542.381 353.242 541.787 351.164 541.585C349.406 541.483 347.641 541.602 345.911 541.94M276.428 580.174C276.764 580.886 277.177 581.558 277.66 582.178C279.187 584.137 281.383 585.536 283.903 586.488C286.397 587.366 289.012 587.85 291.654 587.924C295.879 588.094 300.1 587.488 304.107 586.137C303.862 586.633 303.597 587.178 303.314 587.764C301.226 592.085 297.939 598.879 293.981 603.543C292.097 605.764 289.886 607.308 287.652 608.021C285.641 608.732 283.43 608.618 281.502 607.704C277.582 605.767 275.687 600.204 273.684 594.312C272.106 589.685 270.46 584.864 267.664 581.174H267.724C271.104 581.697 274.455 581.279 276.424 580.163M276.458 558.775C281.815 557.212 287.727 560.958 289.387 562.133C289.311 562.413 289.195 562.679 289.041 562.924C288.315 564.13 286.785 565.324 284.987 566.238C283.232 567.17 281.299 567.714 279.317 567.835C278.886 567.847 278.454 567.816 278.029 567.742C277.939 567.709 277.845 567.689 277.75 567.682C277.44 567.602 277.144 567.476 276.871 567.309C275.657 566.564 274.636 565.541 273.893 564.324C273.438 563.623 273.18 562.812 273.148 561.977C273.146 561.621 273.218 561.269 273.359 560.943C273.5 560.616 273.707 560.323 273.967 560.081C274.689 559.446 275.552 558.995 276.484 558.764M291.085 560.798C290.571 560.424 282.969 554.734 275.911 556.798C274.664 557.12 273.514 557.741 272.56 558.607C272.101 559.037 271.736 559.557 271.488 560.135C271.239 560.713 271.112 561.336 271.115 561.965C271.146 563.174 271.504 564.351 272.15 565.372C273.073 566.873 274.339 568.131 275.843 569.044C276.02 569.153 276.204 569.249 276.394 569.331C275.832 571.01 275.501 572.757 275.408 574.525C275.351 575.77 275.476 577.018 275.78 578.226C275.684 578.249 275.593 578.287 275.508 578.338C273.93 579.268 271.06 579.603 268.089 579.141C265.961 578.839 263.926 578.066 262.132 576.879C260.396 575.742 259.146 573.994 258.629 571.98C258.123 569.936 257.568 567.062 258.8 563.943C258.8 563.943 256.034 564.395 256.488 571.708C256.533 571.969 256.585 572.223 256.645 572.454C257.278 574.954 258.819 577.127 260.967 578.547C261.943 579.216 262.997 579.764 264.105 580.178C267.955 583.626 269.935 589.424 271.812 594.932C273.96 601.237 275.989 607.189 280.668 609.502C283.069 610.655 285.827 610.81 288.341 609.935C290.947 609.096 293.468 607.323 295.597 604.827C299.711 599.976 303.072 593.029 305.206 588.614C306.159 586.644 306.851 585.219 307.089 584.913C309.577 583.766 311.859 582.218 313.846 580.331C313.847 580.856 313.781 581.379 313.649 581.887C313.616 582.017 313.609 582.153 313.628 582.286C313.648 582.419 313.693 582.547 313.761 582.662C313.83 582.778 313.921 582.879 314.028 582.959C314.136 583.04 314.258 583.098 314.388 583.131C314.518 583.164 314.653 583.171 314.786 583.152C314.919 583.133 315.047 583.087 315.162 583.019C315.277 582.95 315.378 582.859 315.458 582.751C315.538 582.644 315.597 582.521 315.63 582.391C316.899 577.428 313.243 575.372 313.236 575.365C313.12 575.297 312.992 575.252 312.859 575.234C312.726 575.216 312.591 575.224 312.461 575.259C312.331 575.293 312.209 575.353 312.103 575.434C311.996 575.516 311.906 575.618 311.839 575.734C311.772 575.851 311.728 575.979 311.71 576.112C311.692 576.246 311.701 576.381 311.736 576.511C311.77 576.641 311.83 576.763 311.912 576.87C311.994 576.977 312.096 577.066 312.212 577.133C312.578 577.403 312.885 577.746 313.113 578.141C310.569 580.777 307.448 582.782 303.996 583.999C300.059 585.409 295.887 586.042 291.71 585.864C289.279 585.801 286.872 585.358 284.577 584.551C282.388 583.745 280.527 582.544 279.246 580.902C277.966 579.26 277.284 577.212 277.385 574.615C277.472 572.984 277.787 571.374 278.319 569.831C278.656 569.861 278.994 569.873 279.332 569.868C281.62 569.741 283.854 569.12 285.88 568.047C288.025 566.984 289.864 565.518 290.776 563.999C291.226 563.299 291.466 562.485 291.468 561.652C291.466 561.492 291.425 561.335 291.351 561.194C291.277 561.053 291.17 560.931 291.04 560.839M262.203 524.294C262.683 522.055 263.487 519.768 264.764 518.369C265.281 517.758 265.983 517.333 266.763 517.16C268.785 516.82 270.861 517.017 272.783 517.731C275.164 518.602 277.392 519.846 279.384 521.417C279.384 521.417 278.937 518.981 277.321 517.582C278.21 517.324 279.116 517.13 280.032 517C281.291 517.547 282.595 517.985 283.93 518.309C290.288 519.597 291.893 517.358 291.893 517.358C290.821 517.302 289.827 517.22 288.914 517.119C288.002 517.018 287.094 516.88 286.308 516.746C284.374 516.419 282.486 515.856 280.687 515.07C280.641 515.041 280.591 515.018 280.538 515.003C278.865 514.277 277.385 513.166 276.219 511.761C275.107 510.327 274.451 508.592 274.336 506.779C273.643 499.869 300.604 510.813 302.257 511.496C302.607 511.641 305.63 512.966 305.932 512.694C303.821 511.145 302.443 509.302 302.641 505.791C302.749 503.809 303.333 501.828 304.398 501.47C304.822 501.362 305.429 501.641 306.259 502.507C308.581 505.027 310.739 507.694 312.718 510.492C314.58 513.104 315.827 514.712 316.814 517.731L317.558 518.055L318.05 518.276C318.682 518.563 319.047 518.738 319.658 519.048C321.575 520.017 323.439 521.088 325.242 522.257C326.905 523.332 328.51 524.492 330.052 525.734C330.133 525.855 330.238 525.956 330.36 526.033C330.483 526.109 330.62 526.159 330.763 526.179C330.901 526.21 331.043 526.212 331.182 526.185C331.32 526.158 331.452 526.103 331.567 526.022C335.262 524.866 339.048 524.027 342.885 523.514C346.913 522.954 350.982 522.736 355.047 522.861C358.574 522.967 362.087 523.341 365.557 523.981C368.997 524.618 372.383 525.523 375.683 526.686C391.442 532.234 405.771 541.309 415.786 547.648C422.066 551.626 426.686 554.551 429.129 554.969L429.341 555.007C429.341 555.007 429.285 555.074 429.207 555.238C428.906 555.791 428.512 556.287 428.041 556.704C425.789 558.883 421.05 561.589 414.449 563.122C395.835 567.447 382.753 560.652 369.849 553.962C364.068 550.977 358.309 547.992 352.136 545.988C351.394 545.751 350.629 545.596 349.854 545.525C349.11 545.459 348.362 545.467 347.62 545.551C347.387 544.999 347.139 544.438 346.876 543.869C348.239 543.629 349.626 543.551 351.008 543.637C352.836 543.822 354.613 544.35 356.246 545.193C360.196 547.081 363.375 548.813 366.372 550.439C372.307 553.66 377.519 556.507 386.714 559.555C391.684 561.201 395.895 561.995 399.681 562.197C403.195 562.375 406.717 562.055 410.142 561.245C410.3 561.208 410.447 561.134 410.572 561.029C410.696 560.924 410.794 560.791 410.857 560.641C410.96 560.39 410.96 560.109 410.857 559.859C410.754 559.608 410.555 559.409 410.306 559.305C403.281 556.35 394.513 550.686 386.595 545.566C383.736 543.701 380.981 541.936 378.431 540.365C372.954 537.007 366.35 533.999 358.949 532.619C352.71 531.433 346.294 531.552 340.104 532.969C339.758 532.529 337.498 531.458 336.79 531.947C338.194 532.921 339.966 536.141 340.603 537.059C344.853 543.121 347.729 550.041 349.031 557.335C345.688 556.48 342.251 556.05 338.801 556.055C335.45 556.055 328.004 556.674 327.126 560.257C330.8 558.701 334.832 558.104 338.801 558.104C342.559 558.083 346.299 558.623 349.899 559.704C349.948 559.724 349.999 559.74 350.051 559.753C350.368 559.854 350.68 559.962 350.986 560.07C354.571 561.368 357.504 563.32 358.882 565.984C359.448 567.082 359.739 568.301 359.731 569.536C359.731 571.693 353.808 568.715 353.342 568.477C353.159 568.376 352.95 568.334 352.743 568.357C352.536 568.379 352.341 568.464 352.183 568.601C352.026 568.738 351.914 568.92 351.863 569.123C351.812 569.325 351.824 569.539 351.898 569.734C351.939 569.842 366.834 607.935 303.311 610.7C306.632 607.816 314.982 600.89 315.108 595.469C308.627 603.222 302.979 608.648 298.084 612.293C292.619 616.368 288.136 618.192 284.51 618.551C281.018 618.898 278.323 617.868 276.32 616.196C275.58 615.574 274.916 614.865 274.343 614.084C271.998 610.92 271.175 607.801 270.215 604.159C268.763 598.659 266.946 590.726 261.242 587.894L261.138 587.838C261.161 587.978 261.212 588.111 261.287 588.23C265.732 595.159 267.087 600.297 268.241 604.685C268.524 605.76 268.796 606.793 269.098 607.797C259.046 604.114 250.178 598.577 244.746 590.745C239.907 583.756 237.77 574.894 239.944 563.839C239.974 563.686 240.007 563.525 240.037 563.387C240.264 562.29 240.376 561.827 239.222 561.682C238.697 561.618 238.477 561.816 238.142 562.159C237.938 562.365 237.723 562.559 237.498 562.742C236.709 563.372 236.121 563.548 235.756 563.398C235.65 563.346 235.556 563.273 235.479 563.184C235.401 563.095 235.342 562.992 235.305 562.88L235.287 562.827C235.114 562.318 235.063 561.775 235.138 561.242C235.369 559.055 236.999 556.107 240.722 554.077C242.155 553.305 243.706 552.778 245.312 552.518C245.394 552.514 245.476 552.5 245.554 552.477C251.682 551.522 254.549 553.223 254.571 553.223C253.201 550.499 249.411 550.078 246.723 550.29C249.24 542.85 254.422 534.928 260.595 528.649C261.004 528.233 261.417 527.824 261.834 527.421C261.895 526.37 262.027 525.324 262.229 524.29L262.203 524.294ZM274.719 516.328C274.302 516.149 273.867 515.981 273.427 515.828C271.238 515.082 268.804 514.679 266.376 515.149C265.163 515.404 264.066 516.05 263.253 516.988C261.496 518.917 260.513 522.048 260.01 524.873C259.906 525.458 259.82 526.029 259.753 526.582L259.102 527.234C252.464 533.988 246.932 542.607 244.441 550.619C242.789 550.935 241.194 551.502 239.713 552.301C235.316 554.708 233.358 558.324 233.072 561.044C232.962 561.904 233.056 562.779 233.347 563.596C233.359 563.618 233.368 563.64 233.377 563.663C233.515 564.034 233.728 564.372 234.001 564.658C234.274 564.943 234.603 565.17 234.966 565.324C235.398 565.478 235.857 565.537 236.313 565.497C236.769 565.457 237.212 565.319 237.61 565.092C235.83 575.999 238.123 584.868 243.034 591.932C248.075 599.193 255.859 604.555 264.809 608.349L267.009 609.237C267.962 609.588 268.935 609.931 269.928 610.267C270.234 611.053 270.582 611.821 270.97 612.569C272.59 616.942 275.773 619.319 280.039 620.308C281.567 620.663 283.144 620.758 284.704 620.588C288.676 620.215 293.512 618.252 299.301 613.939C299.77 613.592 300.243 613.226 300.727 612.846C301.971 612.812 303.18 612.76 304.368 612.7C305.485 612.648 310.47 612.271 310.47 612.271C360.181 607.655 356.581 579.379 354.474 571.223C357.236 572.301 361.756 573.462 361.76 569.536C361.767 567.978 361.396 566.442 360.68 565.059C359.046 561.891 355.706 559.626 351.663 558.163C351.507 558.107 351.354 558.051 351.194 557.999C350.671 554.423 349.745 550.919 348.436 547.551C348.847 547.534 349.258 547.544 349.668 547.581C350.294 547.639 350.912 547.764 351.511 547.954C357.568 549.906 363.223 552.839 368.915 555.79C382.153 562.656 395.593 569.63 414.911 565.137C421.906 563.51 426.999 560.57 429.464 558.189C430.115 557.598 430.654 556.894 431.057 556.111C431.463 555.238 431.452 554.454 430.997 553.827C430.815 553.588 430.586 553.388 430.324 553.239C430.063 553.09 429.774 552.996 429.475 552.962C427.427 552.611 422.956 549.783 416.877 545.932C406.78 539.54 392.339 530.395 376.353 524.768C372.956 523.574 369.471 522.647 365.929 521.996C362.365 521.336 358.756 520.949 355.133 520.839C350.953 520.708 346.77 520.93 342.628 521.503C338.748 522.028 334.918 522.873 331.176 524.029C329.631 522.79 328.023 521.63 326.359 520.555C324.486 519.344 322.55 518.233 320.559 517.227C319.953 516.921 319.349 516.631 318.746 516.358C318.169 515.018 316.709 512.649 314.881 510.048C316.4 509 318.694 507.313 322.39 503.761C326.087 500.209 331.143 494.85 338.242 486.388C350.673 471.53 352.575 456.273 351.496 447.892C351.314 446.207 350.895 444.557 350.252 442.989C349.601 441.534 348.737 440.709 347.825 440.65C347.08 440.597 346.436 440.97 345.937 441.814C344.936 443.511 340.625 446.5 334.769 450.56C324.684 457.552 310.124 467.646 299.219 480.578C296.02 484.382 293.432 488.662 291.547 493.265C290.083 496.906 288.907 500.656 288.028 504.481C279.957 502.343 271.748 501.466 272.303 506.977C272.453 509.179 273.259 511.285 274.619 513.022C275.376 513.965 276.269 514.79 277.269 515.47C276.41 515.699 275.564 515.973 274.734 516.291" fill="#21293A"/>
<path fill-rule="evenodd" clip-rule="evenodd" d="M283.799 560.38C282.035 559.966 280.516 560.156 280.408 560.805C280.3 561.454 281.632 562.32 283.386 562.734C285.139 563.148 286.666 562.962 286.777 562.309C286.889 561.656 285.549 560.798 283.799 560.38Z" fill="white"/>
<path d="M325.64 536.794C321.657 529.007 312.774 527.749 307.376 529.171C306.211 529.477 303.623 527.115 305.515 525.54C307.045 524.275 310.552 523.563 316.102 525.231C322.093 527.029 324.874 530.309 325.689 533.682C325.976 534.85 326.061 535.857 325.626 536.794" fill="#21293A"/>
<path d="M264.798 531.805C269.161 525.776 275.147 526.38 277.995 528.846C278.613 529.384 280.601 528.876 279.894 526.94C272.593 519.585 264.831 525.171 264.798 531.79" fill="#21293A"/>
<path fill-rule="evenodd" clip-rule="evenodd" d="M310.388 614.416C309.91 613.619 309.263 612.936 308.493 612.416L310.459 612.267C312.29 612.101 314.052 611.9 315.745 611.667C314.756 613.753 313.555 615.731 312.16 617.569C311.222 615.771 310.388 614.416 310.388 614.416Z" fill="#3482BD"/>
<path fill-rule="evenodd" clip-rule="evenodd" d="M366.778 589.823C366.778 589.823 371.618 602.387 382.12 604.077C385.549 609.525 379.067 613.924 372.66 612.443C369.902 611.805 360.285 604.831 359.329 595.823C358.372 586.816 366.774 589.823 366.774 589.823" fill="white"/>
<path d="M382.261 603.178C372.582 601.618 367.928 590.279 367.627 589.521C367.583 589.392 367.511 589.275 367.416 589.178C367.32 589.081 367.204 589.007 367.076 588.962C367.046 588.962 357.329 585.48 358.439 595.905C358.837 599.674 360.673 603.085 362.906 605.868C366.283 610.077 370.687 612.89 372.474 613.305C374.584 613.8 376.79 613.707 378.851 613.036C380.242 612.599 381.497 611.812 382.496 610.749C383.458 609.729 383.992 608.376 383.985 606.973C383.947 605.763 383.57 604.589 382.898 603.585C382.831 603.477 382.741 603.384 382.635 603.314C382.529 603.244 382.409 603.197 382.284 603.178M366.138 590.544C367.072 592.723 371.975 603.058 381.58 604.876C381.958 605.519 382.17 606.246 382.198 606.991C382.195 607.943 381.828 608.857 381.174 609.547C380.374 610.388 379.372 611.009 378.263 611.349C376.512 611.913 374.64 611.988 372.85 611.566C371.309 611.193 367.4 608.648 364.287 604.76C362.244 602.211 360.565 599.111 360.218 595.73C359.522 589.189 364.686 590.163 366.112 590.559" fill="#21293A"/>
<path fill-rule="evenodd" clip-rule="evenodd" d="M222.111 582.51C222.111 582.51 214.185 593.376 203.594 592.26C198.866 596.618 203.966 602.562 210.544 602.805C213.378 602.913 224.475 598.7 227.74 590.249C231.005 581.797 222.111 582.51 222.111 582.51Z" fill="white"/>
<path fill-rule="evenodd" clip-rule="evenodd" d="M210.444 591.394C209.863 594.085 210.719 598.364 220.909 598.484C216.784 601.424 212.22 602.875 210.544 602.812C203.977 602.57 198.866 596.626 203.594 592.267C205.913 592.494 208.253 592.198 210.444 591.402" fill="#CDDCE8"/>
<path d="M203.687 591.368C213.441 592.394 220.879 582.659 221.367 582.006C221.443 581.893 221.544 581.799 221.662 581.731C221.78 581.663 221.912 581.623 222.048 581.614C222.074 581.614 232.36 580.797 228.574 590.57C227.208 594.103 224.561 596.913 221.683 599.025C217.328 602.204 212.346 603.767 210.515 603.7C208.341 603.63 206.229 602.966 204.405 601.778C203.18 600.99 202.175 599.902 201.483 598.618C200.831 597.382 200.678 595.942 201.055 594.596C201.407 593.44 202.075 592.406 202.983 591.611C203.077 591.524 203.187 591.458 203.308 591.419C203.429 591.379 203.557 591.365 203.683 591.379M222.562 583.402C221.095 585.267 213.668 593.954 203.922 593.2C203.394 593.719 203.002 594.36 202.779 595.066C202.533 595.985 202.648 596.963 203.099 597.801C203.649 598.81 204.445 599.663 205.414 600.278C206.957 601.282 208.744 601.845 210.582 601.905C212.164 601.965 216.605 600.51 220.633 597.573C223.269 595.644 225.685 593.096 226.914 589.917C229.274 583.775 224.058 583.402 222.562 583.402Z" fill="#21293A"/>
</g>
</g>
<mask id="mask1_355_212" maskUnits="userSpaceOnUse" x="0" y="0" width="375" height="333">
<rect width="375" height="333" fill="#D9D9D9"/>
</mask>
<g mask="url(#mask1_355_212)">
<circle cx="188" cy="61" r="271" fill="#FFC200"/>
<circle cx="188" cy="55" r="271" fill="#21293A"/>
</g>
<defs>
<filter id="filter0_d_355_212" x="4" y="248" width="362" height="488" filterUnits="userSpaceOnUse" color-interpolation-filters="sRGB">
<feFlood flood-opacity="0" result="BackgroundImageFix"/>
<feColorMatrix in="SourceAlpha" type="matrix" values="0 0 0 0 0 0 0 0 0 0 0 0 0 0 0 0 0 0 127 0" result="hardAlpha"/>
<feOffset dy="2"/>
<feGaussianBlur stdDeviation="3"/>
<feComposite in2="hardAlpha" operator="out"/>
<feColorMatrix type="matrix" values="0 0 0 0 0 0 0 0 0 0 0 0 0 0 0 0 0 0 0.15 0"/>
<feBlend mode="normal" in2="BackgroundImageFix" result="effect1_dropShadow_355_212"/>
<feBlend mode="normal" in="SourceGraphic" in2="effect1_dropShadow_355_212" result="shape"/>
</filter>
<clipPath id="clip0_355_212">
<rect width="262" height="351" fill="white" transform="matrix(-1 0 0 1 365 381)"/>
</clipPath>
</defs>
</svg>
