<svg width="60" height="53" viewBox="0 0 60 53" fill="none" xmlns="http://www.w3.org/2000/svg">
<path d="M49.5 20H37.8203L27.1562 1.41406C26.8516 0.90625 26.3438 0.5 25.7344 0.5H19.1328C18.0156 0.5 17.2031 1.61719 17.5078 2.63281L22.4844 20H12.125L7.65625 14.2109C7.35156 13.8047 6.94531 13.5 6.4375 13.5H2.375C1.25781 13.5 0.445312 14.5156 0.75 15.5312L4 26.5L0.75 37.5703C0.445312 38.5859 1.25781 39.5 2.375 39.5H6.4375C6.94531 39.5 7.35156 39.2969 7.65625 38.8906L12.125 33H22.4844L17.5078 50.4688C17.2031 51.4844 18.0156 52.5 19.1328 52.5H25.7344C26.3438 52.5 26.8516 52.1953 27.1562 51.6875L37.8203 33H49.5C53.0547 33 59.25 30.1562 59.25 26.5C59.25 22.9453 53.0547 20 49.5 20Z" fill="#21293A"/>
</svg>
