<svg width="52" height="53" viewBox="0 0 52 53" fill="none" xmlns="http://www.w3.org/2000/svg">
<path d="M0 41.7344V46C0 49.6562 8.73438 52.5 19.5 52.5C30.2656 52.5 39 49.6562 39 46V41.7344C34.7344 44.6797 27.1172 46 19.5 46C11.7812 46 4.16406 44.6797 0 41.7344ZM32.5 13.5C43.2656 13.5 52 10.6562 52 7C52 3.44531 43.2656 0.5 32.5 0.5C21.7344 0.5 13 3.44531 13 7C13 10.6562 21.7344 13.5 32.5 13.5ZM0 31.0703V36.25C0 39.9062 8.73438 42.75 19.5 42.75C30.2656 42.75 39 39.9062 39 36.25V31.0703C34.7344 34.5234 27.1172 36.25 19.5 36.25C11.7812 36.25 4.16406 34.5234 0 31.0703ZM42.25 32.1875C48.0391 31.0703 52 28.9375 52 26.5V22.2344C49.5625 23.8594 46.1094 24.9766 42.25 25.6875V32.1875ZM19.5 16.75C8.73438 16.75 0 20.4062 0 24.875C0 29.4453 8.73438 33 19.5 33C30.2656 33 39 29.4453 39 24.875C39 20.4062 30.2656 16.75 19.5 16.75ZM41.7422 22.5391C47.8359 21.4219 52 19.2891 52 16.75V12.4844C48.3438 15.0234 42.1484 16.3438 35.6484 16.75C38.5938 18.1719 40.8281 20.1016 41.7422 22.5391Z" fill="#21293A"/>
</svg>
