<svg width="375" height="812" viewBox="0 0 375 812" fill="none" xmlns="http://www.w3.org/2000/svg">
<rect width="375" height="812" fill="#21293A"/>
<g clip-path="url(#clip0_301_222)">
<path d="M264.323 751.76C264.989 753.294 264.204 754.899 262.796 755.636C254.755 759.828 247.453 768.852 251.007 778.39C252.333 781.941 246.928 784.288 245.602 780.74C243.348 774.7 244.077 767.98 247.225 762.39C250.254 757.024 255.025 753.05 260.443 750.234C261.862 749.494 263.724 750.379 264.323 751.76Z" fill="#F2B798"/>
<path d="M118.331 777.728C125.343 780.046 129.854 787.266 129.57 794.558C129.286 801.537 125.202 807.731 119.757 811.87C113.875 816.332 106.529 818.258 99.3229 819.246C93.1038 820.1 85.6779 820.526 81.5353 825.958C78.3714 830.133 77.467 836.161 79.8539 840.896C81.4186 844.004 76.7403 846.743 75.1729 843.628C72.1071 837.534 72.5367 830.086 76.1462 824.286C79.8592 818.332 86.1049 815.783 92.7961 814.724C99.7871 813.621 106.897 813.054 113.244 809.626C118.495 806.791 123.194 801.892 124.04 795.761C124.751 790.615 122.038 784.657 116.88 782.95C113.578 781.859 115.002 776.631 118.32 777.728" fill="#00C2FF"/>
<path d="M345.17 805.67C345.653 808.031 346.162 810.572 345.302 812.919C344.443 815.267 342.526 816.66 340.359 817.72C335.702 820.007 330.917 822.074 326.088 823.981C324.717 824.511 323.11 823.385 322.754 822.089C322.335 820.571 323.285 819.289 324.645 818.759C328.889 817.079 333.055 815.247 337.145 813.261C338.394 812.662 340.104 812.117 340.327 810.567C340.592 808.664 339.818 806.457 339.41 804.624C337.463 795.848 334.636 787.291 330.973 779.082C330.374 777.739 330.57 776.167 331.946 775.373C333.116 774.692 335.063 775.02 335.659 776.345C339.898 785.739 343.088 795.57 345.17 805.662" fill="#AAACD0"/>
<path d="M292.926 806.266C294.73 805.853 295.793 804.348 296.143 802.607C296.422 801.211 296.255 799.693 296.228 798.296C296.191 796.611 296.132 794.926 296.05 793.241C295.682 785.914 294.854 778.618 293.571 771.395C293.252 769.602 291.627 768.96 290.24 769.252C289.014 768.499 287.646 768.947 286.683 769.933C281.962 774.764 277.318 779.669 272.749 784.649C270.436 787.171 268.144 789.711 265.872 792.269C264.761 793.519 263.674 794.971 264.382 796.754C265.09 798.537 266.8 798.983 268.461 799.489L288.134 805.508C289.699 805.985 291.274 806.645 292.926 806.266ZM290.897 800.702L289.131 800.172L282.143 798.037L275.152 795.898L271.529 794.788C271.367 794.743 271.19 794.696 270.999 794.648C271.312 794.29 271.622 793.938 271.937 793.588C272.768 792.673 273.59 791.761 274.401 790.851C276.231 788.834 278.071 786.832 279.92 784.845C282.839 781.702 285.782 778.592 288.749 775.513C290.024 783.445 290.733 791.458 290.871 799.491C290.887 799.907 290.887 800.286 290.887 800.702" fill="#ED007B"/>
<path d="M219.558 748.236C214.36 747.134 209.056 749.338 204.789 752.149C200.779 754.789 197.276 758.125 194.446 762C194.295 761.939 194.146 761.876 193.992 761.817C189.07 760.018 183.506 760.601 179.432 764.067C175.507 767.408 172.802 773.989 176.865 778.306C179.933 781.572 185.503 781.339 189.033 778.984C192.465 776.692 194.212 772.943 196.146 769.403C196.445 769.668 196.735 769.962 197 770.256C200.121 773.677 201.283 778.47 201.384 782.974C201.495 787.921 200.211 793.18 196.96 797.017C193.921 800.604 189.147 802.758 184.442 801.823C181.018 801.131 179.933 806.441 183.36 807.122C188.616 808.166 194.191 806.592 198.313 803.206C202.604 799.677 205.248 794.616 206.269 789.19C207.876 780.711 205.863 770.378 199.108 764.758C202.203 760.657 206.314 756.979 210.937 754.844C213.469 753.673 216.469 752.83 219.224 753.728C221.16 754.351 223.202 755.925 223.547 758.06C223.783 759.518 224.873 760.683 226.435 760.577C227.799 760.485 229.183 759.144 228.955 757.692C228.191 752.828 224.327 749.24 219.553 748.231M190.505 768.478C189.478 770.383 188.439 772.365 186.826 773.849C186.317 774.352 185.71 774.745 185.041 775.001C184.373 775.258 183.659 775.374 182.944 775.341C182.397 775.307 181.859 775.184 181.352 774.975C180.822 774.71 180.604 774.496 180.451 774.082C179.859 772.474 180.785 770.516 181.814 769.294C183.037 767.844 184.693 766.822 186.54 766.38C188.187 766.003 189.907 766.095 191.505 766.645C191.165 767.252 190.828 767.861 190.499 768.476" fill="#AFCBE0"/>
<path d="M395.491 585.339C396.934 580.231 395.09 574.796 392.573 570.35C390.211 566.177 387.117 562.462 383.44 559.381C383.511 559.236 383.586 559.092 383.652 558.941C385.774 554.172 385.577 548.571 382.395 544.276C379.316 540.14 372.927 536.998 368.339 540.75C364.87 543.587 364.713 549.157 366.835 552.832C368.893 556.408 372.516 558.396 375.918 560.574C375.627 560.857 375.322 561.122 375.011 561.368C371.386 564.249 366.525 565.078 362.016 564.876C357.07 564.651 351.906 563.022 348.297 559.511C344.921 556.247 343.093 551.335 344.348 546.708C345.26 543.341 340.033 541.905 339.12 545.27C337.717 550.436 338.914 556.101 342.014 560.441C345.247 564.964 350.119 567.945 355.468 569.33C363.817 571.495 374.282 570.199 380.355 563.84C384.241 567.195 387.633 571.543 389.452 576.293C390.449 578.898 391.088 581.947 390.004 584.631C389.237 586.526 387.54 588.455 385.384 588.646C383.928 588.773 382.673 589.798 382.673 591.353C382.673 592.718 383.917 594.191 385.384 594.061C390.285 593.629 394.136 590.018 395.462 585.334M377.244 555.004C375.412 553.854 373.505 552.683 372.131 550.974C371.664 550.432 371.315 549.799 371.104 549.115C370.894 548.431 370.827 547.711 370.908 547C370.977 546.459 371.136 545.933 371.381 545.445C371.683 544.933 371.911 544.732 372.333 544.607C373.969 544.125 375.871 545.182 377.022 546.29C378.382 547.61 379.286 549.329 379.602 551.197C379.868 552.865 379.662 554.574 379.005 556.13C378.427 555.749 377.838 555.373 377.244 555.002" fill="#FF6600"/>
<path d="M356.879 610.459C357.484 612.825 358.115 615.679 359.934 617.446C361.08 618.556 361.584 620.159 360.549 621.561C359.701 622.716 357.606 623.257 356.468 622.149C353.733 619.5 352.46 616.349 351.484 612.722C350.755 610.004 350.246 607.089 348.694 604.705C346.257 600.942 342.04 598.595 337.662 598.11C335.615 597.859 333.537 598.111 331.61 598.844C328.692 599.983 326.279 602.055 323.484 603.427C314.4 607.887 302.118 604.198 296.859 595.434C296.037 594.064 295.952 592.389 297.313 591.303C298.429 590.413 300.599 590.429 301.418 591.796C302.713 593.945 304.502 595.756 306.636 597.078C308.771 598.4 311.189 599.196 313.692 599.4C315.759 599.597 317.844 599.326 319.792 598.605C322.587 597.545 324.932 595.609 327.56 594.223C332.111 591.825 337.397 591.64 342.29 593.113C347.133 594.568 351.264 597.766 353.882 602.089C355.418 604.683 356.131 607.558 356.871 610.451" fill="#00C2FF"/>
<path d="M357.762 641.965C358.208 643.576 357.205 645.057 355.704 645.587C347.156 648.607 338.656 656.53 340.831 666.46C341.643 670.169 335.959 671.735 335.148 668.026C333.771 661.731 335.437 655.178 339.341 650.086C343.093 645.192 348.374 641.944 354.137 639.909C355.64 639.379 357.364 640.513 357.762 641.965Z" fill="#ED007B"/>
<path d="M264.323 751.76C264.989 753.294 264.204 754.899 262.796 755.636C254.755 759.828 247.453 768.852 251.007 778.39C252.333 781.941 246.928 784.288 245.602 780.74C243.348 774.7 244.077 767.98 247.225 762.39C250.254 757.024 255.025 753.05 260.443 750.234C261.862 749.494 263.724 750.379 264.323 751.76Z" fill="#F2B798"/>
<path d="M219.558 748.236C214.36 747.136 209.056 749.338 204.789 752.149C200.779 754.789 197.276 758.125 194.446 762C194.295 761.939 194.146 761.876 193.992 761.817C189.07 760.018 183.506 760.601 179.432 764.067C175.507 767.408 172.802 773.989 176.865 778.306C179.933 781.572 185.503 781.339 189.033 778.984C192.465 776.692 194.212 772.943 196.146 769.403C196.445 769.668 196.735 769.962 197 770.256C200.121 773.677 201.283 778.47 201.384 782.974C201.495 787.921 200.211 793.18 196.96 797.017C193.921 800.604 189.147 802.758 184.442 801.823C181.018 801.131 179.933 806.441 183.36 807.122C188.616 808.166 194.191 806.592 198.313 803.206C202.604 799.677 205.248 794.616 206.269 789.19C207.876 780.711 205.863 770.378 199.108 764.758C202.203 760.657 206.314 756.979 210.937 754.844C213.469 753.673 216.469 752.83 219.224 753.728C221.16 754.351 223.202 755.925 223.547 758.06C223.783 759.518 224.873 760.683 226.435 760.577C227.799 760.485 229.183 759.144 228.955 757.692C228.191 752.828 224.327 749.24 219.553 748.231M190.505 768.478C189.478 770.383 188.439 772.365 186.826 773.849C186.317 774.352 185.71 774.745 185.041 775.001C184.373 775.258 183.659 775.374 182.944 775.341C182.397 775.307 181.859 775.184 181.352 774.975C180.822 774.71 180.604 774.496 180.451 774.082C179.859 772.474 180.785 770.516 181.814 769.294C183.037 767.844 184.693 766.822 186.54 766.38C188.187 766.003 189.907 766.095 191.505 766.645C191.165 767.252 190.828 767.861 190.499 768.476" fill="#AFCBE0"/>
<path d="M395.491 585.339C396.934 580.231 395.09 574.796 392.573 570.35C390.211 566.177 387.117 562.462 383.44 559.381C383.511 559.236 383.586 559.092 383.652 558.941C385.774 554.172 385.577 548.571 382.395 544.276C379.316 540.14 372.927 536.998 368.339 540.75C364.87 543.587 364.713 549.157 366.835 552.832C368.893 556.408 372.516 558.396 375.918 560.574C375.627 560.857 375.322 561.122 375.011 561.368C371.386 564.249 366.525 565.078 362.016 564.876C357.07 564.651 351.906 563.022 348.297 559.511C344.921 556.247 343.093 551.335 344.348 546.708C345.26 543.341 340.033 541.905 339.12 545.27C337.717 550.436 338.914 556.101 342.014 560.441C345.247 564.964 350.119 567.945 355.468 569.33C363.817 571.495 374.282 570.199 380.355 563.84C384.241 567.195 387.633 571.543 389.452 576.293C390.449 578.898 391.088 581.947 390.004 584.631C389.237 586.526 387.54 588.455 385.384 588.646C383.928 588.773 382.673 589.798 382.673 591.353C382.673 592.718 383.917 594.191 385.384 594.061C390.285 593.629 394.136 590.018 395.462 585.334M377.244 555.004C375.412 553.854 373.505 552.683 372.131 550.974C371.664 550.432 371.315 549.799 371.104 549.115C370.894 548.431 370.827 547.711 370.908 547C370.977 546.459 371.136 545.933 371.381 545.445C371.683 544.933 371.911 544.732 372.333 544.607C373.969 544.125 375.871 545.182 377.022 546.29C378.382 547.61 379.286 549.329 379.602 551.197C379.868 552.865 379.662 554.574 379.005 556.13C378.427 555.749 377.838 555.373 377.244 555.002" fill="#FF6600"/>
<path d="M103.654 548.076C104.866 547.156 106.9 547.307 107.783 548.632C110.947 553.342 113.311 558.541 114.779 564.021C117.328 573.665 117.235 583.998 113.636 593.394C109.393 604.458 100.299 612.47 90.6956 618.935C87.5582 621.055 83.9752 616.37 87.1233 614.251C92.3187 610.748 97.4002 606.914 101.506 602.145C107.491 595.213 110.756 586.346 110.692 577.192C110.648 568.301 108.008 559.617 103.097 552.204C102.211 550.879 102.328 549.093 103.654 548.076Z" fill="#ED007B"/>
<path d="M57.2155 788.875C56.221 790.022 54.1948 790.292 53.0571 789.174C48.9925 785.217 45.609 780.618 43.0427 775.561C38.5713 766.645 36.5451 756.484 38.1363 746.577C40.0299 734.877 47.2834 725.185 55.3564 716.884C57.9926 714.171 62.4667 718.015 59.8146 720.736C55.4439 725.222 51.2589 730.01 48.2196 735.523C43.7818 743.533 42.4041 752.88 44.3423 761.828C46.2105 770.52 50.5744 778.479 56.8999 784.731C58.0403 785.852 58.3003 787.616 57.2023 788.885" fill="#FFD880"/>
<path d="M182.23 536.396C184.608 534.794 186.463 532.531 187.566 529.886C188.67 527.241 188.973 524.332 188.439 521.517C187.206 515.086 181.037 510.479 174.648 510.317C174.273 510.294 173.897 510.35 173.545 510.483C173.194 510.616 172.874 510.822 172.608 511.088C170.053 511.395 167.634 512.406 165.62 514.007C163.607 515.608 162.078 517.736 161.204 520.155C159.255 525.719 161.409 532.25 166.071 535.75C170.611 539.157 177.443 539.573 182.233 536.394M182.307 521.456C183.577 524.587 182.54 528.302 180.114 530.61C177.687 532.918 173.789 533.259 170.831 531.813C167.731 530.273 165.983 526.797 166.445 523.385C166.975 519.41 170.768 516.724 174.645 516.906C175.259 516.951 175.871 516.785 176.377 516.435C177.69 516.753 178.91 517.374 179.94 518.248C180.969 519.122 181.779 520.225 182.304 521.469" fill="#66C233"/>
<path d="M248.339 560.982C252.028 560.057 253.585 565.751 249.906 566.66C242.099 568.658 234.112 569.881 226.064 570.311C222.966 570.456 219.906 570.025 217.493 567.926C215.4 566.111 214.31 563.34 213.687 560.714C212.111 554.151 211.255 547.321 210.34 540.638C208.392 526.457 207.251 512.177 206.921 497.867C206.836 494.07 212.732 494.083 212.814 497.867C212.979 505.286 213.362 512.683 213.965 520.059C215.026 532.902 216.485 545.927 219.23 558.531C219.617 560.306 220.115 562.675 221.707 563.78C223.712 565.155 227.17 564.373 229.398 564.185C235.791 563.63 242.128 562.557 248.347 560.979" fill="#FFD880"/>
<path d="M202.444 565.748C205.691 567.706 202.731 572.799 199.474 570.835C193.865 567.454 187.54 563.682 180.793 563.613C175.035 563.544 170.792 566.986 167.4 571.318C163.647 576.105 160.448 581.423 157.38 586.648C150.949 597.623 145.588 609.189 141.369 621.187C140.839 622.692 139.375 623.694 137.747 623.249C136.288 622.849 135.153 621.129 135.683 619.629C138.296 612.181 141.326 604.885 144.759 597.776C147.743 591.63 151.038 585.638 154.63 579.825C157.99 574.38 161.448 568.533 166.034 564.015C170.916 559.201 177.189 557.055 183.994 558.009C190.661 558.947 196.769 562.33 202.455 565.759" fill="#00C2FF"/>
<path d="M272.529 616.657C274.141 617.218 276.507 616.617 276.695 614.537C277.491 605.452 276.223 596.223 272.63 587.811C271.569 585.36 270.365 582.777 267.885 581.492C265.893 580.448 263.676 580.506 261.52 581.065C259.364 581.624 257.338 582.716 255.322 583.63L247.984 586.963C247.336 587.249 246.788 587.72 246.408 588.317C242.724 590.327 239.195 592.61 235.853 595.148C233.997 596.547 234.201 599.122 236.219 600.256C247.831 606.753 259.982 612.239 272.537 616.651M265.183 586.711C265.239 586.737 265.293 586.767 265.344 586.801C266.615 587.644 267.249 590.129 267.763 591.473C270.02 597.347 271.138 603.597 271.057 609.89C261.439 606.305 252.07 602.086 243.011 597.262C249.544 592.872 256.694 589.479 264.228 587.194C264.572 587.093 264.896 586.932 265.183 586.717" fill="#AAACD0"/>
<path d="M211.242 634.197C215.246 630.561 216.159 624.279 214.246 619.359C212.233 614.193 206.797 610.271 201.545 611.297C200.902 611.023 200.192 610.95 199.506 611.085C194.067 612.094 189.818 617.022 188.898 622.374C187.922 628.036 190.566 633.608 195.854 636.073C200.851 638.404 207.054 637.983 211.236 634.183M208.68 621.251C209.764 624.062 209.549 627.53 207.446 629.65C205.248 631.873 201.856 632.149 198.923 631.022C197.551 630.524 196.381 629.59 195.592 628.363C194.803 627.137 194.438 625.685 194.554 624.232C194.655 622.965 195.044 621.737 195.69 620.643C196.336 619.548 197.223 618.614 198.283 617.913C199.392 618.466 200.67 618.154 201.689 617.359C202.925 616.386 205.094 617.255 206.197 618.005C207.313 618.839 208.176 619.966 208.688 621.262" fill="#FF6600"/>
<path d="M319.445 531.5C322.693 543.004 321.831 555.097 320.272 566.795C320.062 568.384 319.089 569.738 317.323 569.738C315.88 569.738 314.167 568.384 314.376 566.795C315.236 560.407 315.891 553.971 315.766 547.519C315.578 537.83 313.4 527.804 307.425 519.964C301.943 512.781 293.104 508.25 283.991 509.366C282.4 509.562 281.045 507.863 281.045 506.422C281.045 504.692 282.4 503.672 283.991 503.478C289.871 502.758 295.841 504.178 301.036 506.939C310.491 511.973 316.591 521.395 319.445 531.5Z" fill="#66C233"/>
<path d="M289.783 550.166C293.351 546.666 294.459 540.728 291.759 536.388C289.142 532.189 283.538 529.804 278.722 531.394C273.083 533.265 269.797 539.544 271.354 545.246C271.437 545.548 271.563 545.836 271.728 546.102C272.548 548.171 273.966 549.949 275.802 551.21C280.077 554.146 286.049 553.83 289.783 550.171M287.397 541.876C287.37 544.901 284.811 547.649 281.801 547.328C280.243 547.156 278.815 546.381 277.822 545.169C277.495 544.736 277.241 544.252 277.072 543.736C277.061 543.717 277.057 543.696 277.059 543.675C276.934 543.205 276.876 542.72 276.886 542.233C276.92 541.821 277.079 541.429 277.342 541.11C277.635 540.777 277.858 540.389 277.998 539.968C278.138 539.548 278.193 539.104 278.159 538.662C278.551 538.147 279.042 537.716 279.604 537.394C280.166 537.073 280.787 536.868 281.429 536.791C284.28 536.484 287.42 538.847 287.407 541.876" fill="#C233FF"/>
<path d="M250.792 513.73C254.505 512.935 256.073 518.613 252.36 519.408C247.284 520.486 242.282 519.031 238.266 515.749C234.251 512.466 232.145 507.535 231.578 502.48C230.963 496.99 232.761 492.146 234.121 486.956C234.917 483.946 235.447 478.414 231.673 477.198C228.072 476.024 229.621 470.351 233.241 471.52C237.882 473.017 240.258 477.439 240.611 482.086C241.003 487.277 238.248 491.979 237.513 497C236.893 501.24 237.582 506.009 240.282 509.453C242.703 512.537 246.854 514.562 250.792 513.724" fill="#FF6600"/>
<path d="M356.879 610.459C357.484 612.825 358.115 615.679 359.934 617.446C361.08 618.556 361.584 620.159 360.549 621.561C359.701 622.716 357.606 623.257 356.468 622.149C353.733 619.5 352.46 616.349 351.484 612.722C350.755 610.004 350.246 607.089 348.694 604.705C346.257 600.942 342.04 598.595 337.662 598.11C335.615 597.859 333.537 598.111 331.61 598.844C328.692 599.983 326.279 602.055 323.484 603.427C314.4 607.887 302.118 604.198 296.859 595.434C296.037 594.064 295.952 592.389 297.313 591.303C298.429 590.413 300.599 590.429 301.418 591.796C302.713 593.945 304.502 595.756 306.636 597.078C308.771 598.4 311.189 599.196 313.692 599.4C315.759 599.597 317.844 599.326 319.792 598.605C322.587 597.545 324.932 595.609 327.56 594.223C332.111 591.825 337.397 591.64 342.29 593.113C347.133 594.568 351.264 597.766 353.882 602.089C355.418 604.683 356.131 607.558 356.871 610.451" fill="#00C2FF"/>
<path d="M314.636 673.132C315.331 675.887 316.007 678.77 315.665 681.61C315.021 686.965 310.73 691.149 307.157 694.858C303.405 698.71 299.332 702.236 294.982 705.398C293.69 706.341 291.688 705.602 290.95 704.338C290.091 702.865 290.73 701.249 292.011 700.311C296.432 697.055 300.532 693.385 304.256 689.352C305.789 687.696 307.401 686.011 308.608 684.093C309.86 682.116 310.091 680.15 309.669 677.877C308.77 673.058 307.179 668.32 305.322 663.784C301.667 654.821 296.631 646.464 291.693 638.166C289.749 634.896 294.846 631.937 296.782 635.193C299.846 640.338 302.903 645.5 305.68 650.799C308.221 655.59 310.436 660.547 312.31 665.636C313.21 668.099 313.984 670.606 314.628 673.148" fill="#F3C111"/>
<path d="M274.505 640.275C277.767 642.217 274.505 647.129 271.259 645.192C266.426 642.315 260.52 643.213 256.38 646.851C252.736 650.052 250.373 654.431 247.676 658.406C244.822 662.61 241.513 666.603 236.951 669.004C227.854 673.792 216.217 672.162 208.759 665.17C207.592 664.076 207.892 661.99 208.998 661.013C210.26 659.889 212 660.165 213.159 661.251C216.753 664.619 221.8 666.073 226.661 665.84C231.035 665.634 235.18 663.823 238.301 660.753C241.749 657.37 244.088 652.99 246.833 649.05C249.673 644.972 253.121 640.98 257.82 639.032C260.505 637.922 263.414 637.457 266.312 637.675C269.21 637.892 272.016 638.786 274.505 640.285" fill="#66C233"/>
<path d="M357.762 641.965C358.208 643.576 357.205 645.057 355.704 645.587C347.156 648.607 338.656 656.53 340.831 666.46C341.643 670.169 335.959 671.735 335.148 668.026C333.771 661.731 335.437 655.178 339.341 650.086C343.093 645.192 348.374 641.944 354.137 639.909C355.64 639.379 357.364 640.513 357.762 641.965Z" fill="#ED007B"/>
<path d="M62.1485 499.022C62.3633 500.681 61.1645 502.008 59.6077 502.323C50.7232 504.128 41.1995 510.802 41.9713 520.928C42.271 524.704 36.4257 525.464 36.1367 521.689C35.646 515.261 38.2026 509.016 42.7855 504.512C47.188 500.185 52.8635 497.705 58.8572 496.489C60.4246 496.168 61.9655 497.536 62.1591 499.027" fill="#66C233"/>
<path d="M264.323 433.814C264.989 435.348 264.204 436.954 262.796 437.69C254.755 441.882 247.453 450.906 251.007 460.445C252.333 463.995 246.928 466.342 245.602 462.795C243.348 456.754 244.077 450.034 247.225 444.444C250.254 439.071 255.025 435.115 260.443 432.288C261.862 431.549 263.724 432.434 264.323 433.814Z" fill="#F2B798"/>
<path d="M344.998 683.99C348.795 683.99 348.798 689.879 344.998 689.879C341.197 689.879 341.202 683.99 344.998 683.99Z" fill="#F3C111"/>
<path d="M180.464 680.707C182.904 675.182 180.464 669.255 175.364 666.285C170.219 663.281 163.835 663.291 158.2 664.677C154.216 665.669 150.466 667.43 147.159 669.86C146.184 668.574 145.283 667.234 144.462 665.845C141.131 660.178 139.778 653.448 142.319 647.214C142.913 645.741 141.666 643.979 140.261 643.592C138.574 643.128 137.237 644.169 136.635 645.648C132.583 655.594 136.561 665.623 142.799 673.656C142.498 673.964 142.205 674.279 141.918 674.602C137.715 679.289 134.309 684.493 128.621 687.548C117.126 693.721 102.497 689.914 95.4297 678.969C93.3796 675.789 88.269 678.743 90.3376 681.941C96.4374 691.382 107.497 697.309 118.816 696.374C124.497 695.91 130.109 694.013 134.747 690.664C139.547 687.219 142.703 682.363 146.681 678.123C147.53 679.007 148.389 679.849 149.259 680.651C153.951 684.991 159.539 688.761 166.095 689.196C171.929 689.596 178.088 686.109 180.475 680.717M174.157 672.769C177.281 676.062 174.645 680.397 171.182 682.281C166.562 684.792 161.265 682.469 157.33 679.726C155.06 678.133 152.944 676.332 151.007 674.348C154.258 672.074 157.983 670.568 161.902 669.942C165.965 669.292 171.142 669.608 174.157 672.771" fill="#FFC200"/>
<path d="M118.328 459.782C125.34 462.101 129.851 469.321 129.567 476.615C129.284 483.58 125.192 489.786 119.755 493.914C113.872 498.376 106.526 500.302 99.3203 501.29C93.0878 502.143 85.6646 502.57 81.5353 508.015C78.3714 512.19 77.467 518.218 79.8539 522.953C81.4186 526.061 76.7403 528.8 75.1729 525.684C72.1071 519.577 72.5367 512.129 76.1462 506.329C79.8592 500.376 86.1049 497.827 92.7961 496.767C99.787 495.665 106.897 495.098 113.244 491.67C118.495 488.834 123.194 483.935 124.04 477.804C124.751 472.659 122.038 466.7 116.88 464.994C113.578 463.902 115.002 458.675 118.32 459.772" fill="#00C2FF"/>
<path d="M345.151 487.719C345.634 490.08 346.143 492.621 345.284 494.968C344.425 497.316 342.507 498.709 340.34 499.769C335.683 502.056 330.899 504.122 326.069 506.03C324.698 506.56 323.091 505.434 322.736 504.138C322.317 502.62 323.266 501.338 324.627 500.808C328.87 499.135 333.043 497.304 337.145 495.315C338.394 494.716 340.104 494.171 340.327 492.621C340.592 490.718 339.818 488.511 339.41 486.678C337.463 477.902 334.636 469.345 330.973 461.136C330.374 459.793 330.57 458.222 331.947 457.427C333.116 456.746 335.063 457.074 335.659 458.399C339.898 467.793 343.088 477.624 345.17 487.716" fill="#AAACD0"/>
<path d="M292.926 488.32C294.73 487.907 295.793 486.402 296.143 484.661C296.422 483.265 296.255 481.747 296.228 480.351C296.191 478.666 296.132 476.98 296.05 475.295C295.682 467.969 294.854 460.673 293.571 453.45C293.252 451.656 291.627 451.015 290.24 451.306C289.014 450.554 287.646 451.002 286.683 451.987C281.962 456.818 277.318 461.724 272.749 466.705C270.436 469.224 268.144 471.763 265.872 474.323C264.761 475.573 263.674 477.025 264.382 478.809C265.09 480.592 266.8 481.037 268.461 481.543L288.134 487.555C289.699 488.032 291.274 488.691 292.926 488.313M290.884 482.748L289.118 482.219L282.129 480.083L275.139 477.945L271.516 476.835C271.354 476.79 271.176 476.742 270.985 476.694C271.298 476.334 271.609 475.982 271.924 475.634C272.746 474.718 273.568 473.804 274.388 472.895C276.218 470.878 278.058 468.874 279.907 466.883C282.828 463.749 285.775 460.642 288.749 457.559C290.024 465.492 290.733 473.505 290.871 481.538C290.887 481.954 290.887 482.346 290.887 482.748" fill="#ED007B"/>
<path d="M157.298 468.645C160.791 468.645 160.793 474.061 157.298 474.061C153.802 474.061 153.81 468.645 157.298 468.645Z" fill="#FF6600"/>
<path d="M147.337 510.076C149.723 514.156 148.148 518.713 146.883 522.871C145.456 527.528 144.036 532.187 142.621 536.847C141.605 540.177 136.375 538.749 137.394 535.408L141.022 523.501C141.611 521.575 142.25 519.657 142.764 517.712C143.138 516.294 143.488 514.707 142.913 513.292C142.008 511.056 139.242 510.055 137.078 509.549C133.63 508.735 129.878 508.833 126.414 509.498C124.971 509.763 123.497 509.109 123.078 507.606C122.712 506.282 123.534 504.541 124.971 504.276C132.087 502.922 143.093 502.874 147.337 510.076Z" fill="#AAACD0"/>
<path d="M269.715 699.667C271.807 694.018 269.076 686.7 263.432 684.3C263.253 684.222 263.067 684.159 262.878 684.112C260.815 682.748 258.396 682.023 255.922 682.027C253.449 682.03 251.032 682.763 248.973 684.133C244.297 687.209 242.398 692.892 244.09 698.212C245.814 703.631 250.493 707.605 256.184 708.032C261.875 708.458 267.705 705.056 269.71 699.654M260.838 689.077C262.236 689.727 263.389 690.806 264.128 692.158C264.866 693.51 265.152 695.062 264.944 696.588C264.466 699.958 261.271 702.298 257.998 702.635C254.489 702.998 251.479 701.177 249.856 698.093C248.35 695.229 248.57 691.734 250.848 689.538C253.126 687.341 257.311 686.573 259.756 688.478C260.083 688.732 260.448 688.931 260.838 689.069" fill="#FFCAC1"/>
<path d="M171.853 636.772L171.948 637.493C171.934 638.021 171.77 638.534 171.475 638.972C171.18 639.41 170.767 639.755 170.282 639.967C169.961 640.135 169.6 640.216 169.238 640.201H168.585C167.869 640.188 167.185 639.904 166.67 639.406C166.339 639.074 166.098 638.662 165.973 638.211C165.941 637.97 165.909 637.731 165.875 637.49C165.893 636.778 166.184 636.099 166.689 635.595C167.193 635.091 167.872 634.8 168.585 634.782H169.238C169.955 634.793 170.641 635.078 171.155 635.577C171.487 635.908 171.728 636.32 171.853 636.772Z" fill="#AFCBE0"/>
<path d="M138.574 563.117C138.606 563.356 138.638 563.597 138.672 563.835C138.671 564.553 138.386 565.242 137.878 565.75C137.37 566.258 136.681 566.544 135.962 566.546H135.309C134.592 566.534 133.906 566.25 133.392 565.751C133.06 565.419 132.82 565.008 132.694 564.556L132.599 563.835C132.6 563.117 132.887 562.429 133.395 561.921C133.904 561.413 134.593 561.128 135.312 561.127H135.964C136.681 561.137 137.366 561.422 137.879 561.922C138.212 562.253 138.453 562.665 138.577 563.117" fill="#AFCBE0"/>
<path d="M80.4957 706.458C80.5275 706.696 80.5593 706.937 80.5938 707.176C80.5931 707.894 80.3074 708.582 79.7993 709.09C79.2912 709.599 78.6022 709.885 77.8834 709.886H77.2309C76.5139 709.874 75.8282 709.59 75.3135 709.091C74.9817 708.76 74.7414 708.348 74.616 707.896L74.5205 707.176C74.504 706.813 74.5845 706.453 74.7539 706.132C74.8766 705.805 75.0679 705.508 75.3149 705.261C75.5619 705.015 75.8589 704.824 76.186 704.701C76.5076 704.532 76.8681 704.452 77.2309 704.468H77.8834C78.6 704.478 79.2855 704.762 79.7982 705.263C80.1325 705.592 80.3732 706.005 80.4957 706.458Z" fill="#C233FF"/>
<path d="M281.986 743.591C279.162 741.564 275.799 745.817 278.645 747.857C282.092 750.334 285.758 752.729 289.972 753.636C295.011 754.719 299.405 752.539 303.161 749.312C305.179 747.589 307.165 745.886 309.422 744.675C309.263 747.454 309.377 750.239 309.979 752.835C311.165 757.968 315.151 762.329 320.784 761.619C325.192 761.065 329.117 757.777 330.26 753.474C331.541 748.665 329.061 743.583 325.282 740.618C322.516 738.446 319.198 737.521 315.824 737.553C316.471 733.943 317.435 730.396 318.705 726.955C320.489 722.138 323.078 717.165 327.616 714.417C330.883 712.44 335.556 711.717 338.898 713.908C340.12 714.703 341.749 714.663 342.703 713.445C343.549 712.366 343.47 710.437 342.239 709.642C337.895 706.781 332.572 706.54 327.759 708.371C322.526 710.363 318.742 714.642 316.129 719.451C313.382 724.485 311.737 730.235 310.637 735.833C310.467 736.694 310.305 737.574 310.154 738.464C307.525 739.328 305.074 740.662 302.922 742.401C300.402 744.402 298.084 747.24 294.902 748.209C290.277 749.624 285.524 746.129 281.986 743.591ZM323.866 746.906C324.817 748.207 325.277 749.803 325.162 751.41C325.011 752.675 324.389 753.838 323.42 754.666C321.205 756.566 318.27 757.051 316.413 754.491C315.177 752.785 314.949 750.443 314.867 748.397C314.815 746.586 314.886 744.773 315.082 742.971C318.53 742.727 321.821 744.004 323.866 746.919" fill="#00C2FF"/>
<path d="M219.558 430.287C214.36 429.185 209.056 431.39 204.789 434.201C200.779 436.84 197.276 440.177 194.446 444.052C194.295 443.991 194.146 443.927 193.992 443.869C189.07 442.07 183.506 442.653 179.432 446.118C175.507 449.459 172.802 456.041 176.865 460.357C179.933 463.621 185.503 463.391 189.033 461.035C192.465 458.743 194.212 454.994 196.146 451.455C196.445 451.72 196.735 452.014 197 452.308C200.121 455.728 201.283 460.521 201.384 465.026C201.495 469.972 200.211 475.232 196.96 479.068C193.921 482.656 189.147 484.81 184.442 483.874C181.018 483.186 179.933 488.495 183.36 489.174C188.616 490.22 194.191 488.644 198.313 485.26C202.604 481.731 205.248 476.67 206.269 471.244C207.876 462.766 205.863 452.432 199.108 446.813C202.203 442.711 206.314 439.033 210.937 436.898C213.469 435.727 216.469 434.884 219.224 435.783C221.16 436.405 223.202 437.979 223.547 440.115C223.783 441.559 224.873 442.738 226.435 442.632C227.799 442.539 229.183 441.198 228.955 439.746C228.191 434.882 224.327 431.294 219.553 430.285M190.51 450.535C189.484 452.44 188.444 454.422 186.832 455.906C186.323 456.409 185.715 456.802 185.047 457.058C184.379 457.314 183.664 457.429 182.949 457.395C182.402 457.363 181.864 457.241 181.358 457.032C180.827 456.767 180.61 456.552 180.456 456.139C179.865 454.531 180.79 452.573 181.819 451.351C183.043 449.901 184.699 448.879 186.545 448.437C188.192 448.06 189.912 448.151 191.51 448.702C191.17 449.308 190.834 449.918 190.505 450.533" fill="#AFCBE0"/>
<path d="M77.2283 585.323C78.6684 580.215 76.8278 574.781 74.311 570.335C71.949 566.159 68.8553 562.44 65.1772 559.357C65.2488 559.212 65.323 559.069 65.3893 558.918C67.511 554.148 67.3147 548.547 64.1322 544.252C61.0531 540.116 54.6642 536.974 50.0761 540.726C46.6072 543.564 46.4507 549.133 48.5724 552.808C50.6304 556.385 54.2532 558.372 57.6558 560.55C57.3641 560.833 57.0591 561.098 56.7488 561.345C53.1234 564.225 48.2621 565.054 43.7535 564.853C38.8073 564.627 33.6437 562.998 30.0342 559.487C26.6581 556.223 24.8308 551.311 26.0852 546.685C26.9975 543.317 21.7623 541.873 20.8579 545.249C19.455 550.415 20.6511 556.08 23.7514 560.42C26.9843 564.94 31.8562 567.921 37.2161 569.322C45.5649 571.487 56.0301 570.191 62.1034 563.833C65.9887 567.187 69.3807 571.535 71.2001 576.285C72.1973 578.89 72.8364 581.94 71.7517 584.624C70.9853 586.518 69.2879 588.447 67.1318 588.638C65.6758 588.765 64.4213 589.79 64.4213 591.345C64.4213 592.71 65.6651 594.183 67.1318 594.053C72.0328 593.621 75.8837 590.01 77.2097 585.326M58.9819 554.988C57.1493 553.838 55.2424 552.667 53.8686 550.958C53.4018 550.416 53.0522 549.783 52.8418 549.099C52.6314 548.415 52.5647 547.695 52.646 546.984C52.7143 546.443 52.8739 545.917 53.1181 545.429C53.4204 544.917 53.6485 544.716 54.0702 544.592C55.7065 544.109 57.6081 545.166 58.7591 546.274C60.1199 547.594 61.0238 549.313 61.3396 551.181C61.6067 552.849 61.4009 554.558 60.7455 556.114C60.1673 555.733 59.5786 555.357 58.9845 554.986" fill="#FF6600"/>
<path d="M122.009 723.794C122.388 719.059 119.407 714.412 115.185 712.401C111.173 708.795 104.961 709.653 101.293 713.381C97.4187 717.321 96.9387 723.545 99.7022 728.255C102.341 732.76 107.717 735.441 112.883 734.286C117.768 733.197 121.611 728.738 122.012 723.783M111.212 716.783C114.525 717.443 117.251 720.744 116.49 724.186C115.729 727.628 112.008 729.888 108.634 728.907C104.826 727.8 102.397 723.436 103.643 719.634C104.399 717.323 107.091 715.108 109.56 715.453C109.718 715.784 109.948 716.075 110.234 716.304C110.52 716.534 110.855 716.695 111.212 716.778" fill="#ED007B"/>
<path d="M145.247 763.659C147.899 765.924 144.528 770.174 141.876 767.898C139.653 765.976 136.948 764.695 134.051 764.191C131.155 763.687 128.175 763.981 125.433 765.039C120.548 766.894 116.336 770.169 111.401 771.907C105.614 773.947 99.5298 773.322 94.0638 770.606C84.3174 765.768 76.3955 755.53 77.5306 744.219C77.8834 740.748 83.2459 741.543 82.8985 744.987C82.3681 750.35 84.755 755.427 88.2027 759.401C91.4727 763.176 96.159 766.353 101.081 767.384C106.279 768.47 110.706 766.589 115.214 764.128C119.723 761.666 124.269 758.961 129.536 758.564C135.235 758.127 140.877 759.954 145.236 763.648" fill="#66C233"/>
<path d="M164.313 736.233C165.798 733.751 164.026 731.464 162.562 729.511C161.098 727.559 159.568 725.643 157.956 723.807C156.465 722.122 154.922 720.28 152.694 719.568C148 718.065 144.767 722.57 143.441 726.396C141.552 731.777 140.717 737.587 140.73 743.276C140.73 746.214 144.597 746.678 145.798 744.656C150.043 743.422 154.192 741.877 158.21 740.035C160.181 739.129 163.13 738.205 164.31 736.244M158.608 733.838C157.865 734.22 157.117 734.587 156.364 734.94C154.993 735.587 153.606 736.199 152.198 736.758C150.253 737.525 148.293 738.221 146.318 738.846C146.477 736.976 146.753 735.118 147.143 733.282C147.692 730.738 148.217 727.49 149.93 725.421C150.31 724.962 150.739 724.626 151.145 724.75C152.304 725.142 153.336 726.772 154.107 727.649C155.189 728.878 156.229 730.139 157.242 731.438C157.717 732.05 158.451 732.813 158.982 733.608C158.849 733.695 158.717 733.777 158.608 733.836" fill="#FF6600"/>
<path d="M45.5755 684.323C45.2122 687.182 47.7608 688.563 49.8905 689.768C52.0201 690.974 54.1895 692.102 56.4067 693.133C58.4567 694.084 60.6129 695.147 62.9388 694.9C67.8346 694.37 68.9643 688.957 68.6488 684.925C68.2058 679.252 66.6252 673.587 64.3179 668.389C63.1244 665.702 59.4062 666.831 59.1224 669.165C55.7352 672.004 52.5626 675.088 49.6305 678.394C48.1878 680.018 45.8646 682.053 45.5755 684.323ZM51.7416 684.236C52.272 683.589 52.8078 682.952 53.3488 682.323C54.3407 681.173 55.367 680.058 56.4279 678.979C57.8883 677.499 59.4009 676.074 60.9656 674.703C61.5776 676.476 62.0755 678.287 62.4561 680.124C62.9865 682.67 63.8113 685.855 63.0767 688.438C62.9149 689.013 62.663 689.498 62.236 689.543C61.0081 689.652 59.4168 688.576 58.356 688.083C56.8734 687.392 55.3989 686.663 53.9561 685.881C53.2745 685.51 52.2853 685.108 51.4897 684.594C51.5719 684.469 51.6621 684.35 51.7549 684.236" fill="#AFCBE0"/>
<path d="M105.638 648.798C108.855 646.854 105.821 642.161 102.574 644.122L89.2927 652.145C88.2451 652.781 87.1843 653.438 86.1234 654.055C85.8451 654.175 85.5787 654.322 85.3278 654.492C84.8186 653.167 84.1954 651.562 83.6649 650.118C80.7689 642.084 76.1038 634.703 70.004 628.259C68.9431 627.141 66.8002 627.287 65.7102 628.259C64.469 629.367 64.6494 630.967 65.7102 632.088C68.8441 635.407 71.5768 639.082 73.8522 643.038C74.9962 645.007 76.008 647.05 76.8809 649.153C77.6977 651.133 78.2441 653.215 79.0397 655.168C79.8353 657.121 81.1614 659.097 83.5191 659.746C86.4364 660.541 88.8233 658.951 91.1279 657.563L105.638 648.798ZM85.4816 654.611C85.6461 654.611 85.6089 655.141 85.3809 654.611H85.4816Z" fill="#66C233"/>
<path d="M243.25 729.103C244.634 729.596 245.554 730.934 245.143 732.434C244.775 733.759 243.186 734.818 241.807 734.326C235.178 731.962 228.609 729.449 222.099 726.785C216.254 724.397 210.458 721.892 204.712 719.271C199.938 717.096 195.027 715.032 190.903 711.746C186.861 708.524 184.304 703.925 185.068 698.673C185.514 695.658 186.885 692.903 188.166 690.168L192.231 681.483C192.857 680.158 194.769 679.824 195.944 680.511C197.289 681.306 197.535 682.895 196.915 684.22C195.485 687.274 194.054 690.331 192.624 693.39C191.46 695.878 189.993 698.689 190.356 701.511C190.831 705.22 194.242 707.793 197.238 709.587C201.747 712.281 206.706 714.3 211.48 716.42C221.912 721.046 232.499 725.276 243.242 729.109" fill="#C233FF"/>
<path d="M38.6164 610.451C39.2211 612.817 39.8523 615.671 41.6716 617.438C42.8173 618.548 43.3212 620.151 42.2869 621.553C41.4382 622.708 39.3431 623.249 38.2053 622.141C35.4736 619.492 34.2006 616.333 33.2247 612.714C32.4953 609.996 31.9861 607.081 30.4347 604.697C27.9974 600.934 23.7805 598.581 19.3993 598.11C17.3528 597.857 15.2755 598.106 13.3472 598.836C10.4299 599.975 8.01646 602.047 5.22115 603.419C-3.86229 607.879 -16.1442 604.19 -21.4033 595.426C-22.2254 594.067 -22.3103 592.389 -20.9392 591.303C-19.82 590.413 -17.6532 590.429 -16.8337 591.796C-15.5384 593.945 -13.7497 595.756 -11.6155 597.078C-9.4813 598.4 -7.06278 599.196 -4.55979 599.4C-2.49255 599.597 -0.407404 599.326 1.54004 598.605C4.33535 597.545 6.6798 595.609 9.30803 594.223C13.8696 591.825 19.1553 591.64 24.0484 593.113C28.8919 594.568 33.0226 597.766 35.6407 602.089C37.1763 604.683 37.8897 607.558 38.6296 610.451" fill="#00C2FF"/>
<path d="M39.5101 641.965C39.9557 643.576 38.9532 645.057 37.4521 645.587C28.9044 648.608 20.4044 656.53 22.5818 666.46C23.3907 670.17 17.7072 671.736 16.8957 668.026C15.5192 661.731 17.1848 655.178 21.0887 650.086C24.8414 645.203 30.1217 641.944 35.8847 639.904C37.3885 639.374 39.1123 640.508 39.5101 641.96" fill="#ED007B"/>
<path d="M77.2283 585.323C78.6684 580.215 76.8278 574.781 74.311 570.335C71.949 566.159 68.8553 562.44 65.1772 559.357C65.2488 559.212 65.323 559.069 65.3893 558.918C67.511 554.148 67.3147 548.547 64.1322 544.252C61.0531 540.116 54.6642 536.974 50.0761 540.726C46.6072 543.564 46.4507 549.133 48.5724 552.808C50.6304 556.385 54.2532 558.372 57.6558 560.55C57.3641 560.833 57.0591 561.098 56.7488 561.345C53.1234 564.225 48.2621 565.054 43.7535 564.853C38.8073 564.627 33.6437 562.998 30.0342 559.487C26.6581 556.223 24.8308 551.311 26.0852 546.685C26.9975 543.317 21.7623 541.873 20.8579 545.249C19.455 550.415 20.6511 556.08 23.7514 560.42C26.9843 564.94 31.8562 567.921 37.2161 569.322C45.5649 571.487 56.0301 570.191 62.1034 563.833C65.9887 567.187 69.3807 571.535 71.2001 576.285C72.1973 578.89 72.8364 581.94 71.7517 584.624C70.9853 586.518 69.2879 588.447 67.1318 588.638C65.6758 588.765 64.4213 589.79 64.4213 591.345C64.4213 592.71 65.6651 594.183 67.1318 594.053C72.0328 593.621 75.8837 590.01 77.2097 585.326M58.9819 554.988C57.1493 553.838 55.2424 552.667 53.8686 550.958C53.4018 550.416 53.0522 549.783 52.8418 549.099C52.6314 548.415 52.5647 547.695 52.646 546.984C52.7143 546.443 52.8739 545.917 53.1181 545.429C53.4204 544.917 53.6485 544.716 54.0702 544.592C55.7065 544.109 57.6081 545.166 58.7591 546.274C60.1199 547.594 61.0238 549.313 61.3396 551.181C61.6067 552.849 61.4009 554.558 60.7455 556.114C60.1673 555.733 59.5786 555.357 58.9845 554.986" fill="#FF6600"/>
<path d="M38.6164 610.451C39.2211 612.817 39.8523 615.671 41.6716 617.438C42.8173 618.548 43.3212 620.151 42.2869 621.553C41.4382 622.708 39.3431 623.249 38.2053 622.141C35.4736 619.492 34.2006 616.333 33.2247 612.714C32.4953 609.996 31.9861 607.081 30.4347 604.697C27.9974 600.934 23.7805 598.581 19.3993 598.11C17.3528 597.857 15.2755 598.106 13.3472 598.836C10.4299 599.975 8.01646 602.047 5.22115 603.419C-3.86229 607.879 -16.1442 604.19 -21.4033 595.426C-22.2254 594.067 -22.3103 592.389 -20.9392 591.303C-19.82 590.413 -17.6532 590.429 -16.8337 591.796C-15.5384 593.945 -13.7497 595.756 -11.6155 597.078C-9.4813 598.4 -7.06278 599.196 -4.55979 599.4C-2.49255 599.597 -0.407404 599.326 1.54004 598.605C4.33535 597.545 6.6798 595.609 9.30803 594.223C13.8696 591.825 19.1553 591.64 24.0484 593.113C28.8919 594.568 33.0226 597.766 35.6407 602.089C37.1763 604.683 37.8897 607.558 38.6296 610.451" fill="#00C2FF"/>
<path d="M39.5101 641.965C39.9557 643.576 38.9532 645.057 37.4521 645.587C28.9044 648.608 20.4044 656.53 22.5818 666.46C23.3907 670.17 17.7072 671.736 16.8957 668.026C15.5192 661.731 17.1848 655.178 21.0887 650.086C24.8414 645.203 30.1217 641.944 35.8847 639.904C37.3885 639.374 39.1123 640.508 39.5101 641.96" fill="#ED007B"/>
<path d="M26.7456 683.99C30.5434 683.99 30.546 689.879 26.7456 689.879C22.9451 689.879 22.9531 683.99 26.7456 683.99Z" fill="#F3C111"/>
<path d="M264.323 433.814C264.989 435.348 264.204 436.954 262.796 437.69C254.755 441.882 247.453 450.906 251.007 460.445C252.333 463.995 246.928 466.342 245.602 462.795C243.348 456.754 244.077 450.034 247.225 444.444C250.254 439.071 255.025 435.115 260.443 432.288C261.862 431.549 263.724 432.434 264.323 433.814Z" fill="#F2B798"/>
<path d="M219.558 430.287C214.36 429.185 209.056 431.39 204.789 434.201C200.779 436.84 197.276 440.177 194.446 444.052C194.295 443.991 194.146 443.927 193.992 443.869C189.07 442.07 183.506 442.653 179.432 446.118C175.507 449.459 172.802 456.041 176.865 460.357C179.933 463.621 185.503 463.391 189.033 461.035C192.465 458.743 194.212 454.994 196.146 451.455C196.445 451.72 196.735 452.014 197 452.308C200.121 455.728 201.283 460.521 201.384 465.026C201.495 469.972 200.211 475.232 196.96 479.068C193.921 482.656 189.147 484.81 184.442 483.874C181.018 483.186 179.933 488.495 183.36 489.174C188.616 490.22 194.191 488.644 198.313 485.26C202.604 481.731 205.248 476.67 206.269 471.244C207.876 462.766 205.863 452.432 199.108 446.813C202.203 442.711 206.314 439.033 210.937 436.898C213.469 435.727 216.469 434.884 219.224 435.783C221.16 436.405 223.202 437.979 223.547 440.115C223.783 441.559 224.873 442.738 226.435 442.632C227.799 442.539 229.183 441.198 228.955 439.746C228.191 434.882 224.327 431.294 219.553 430.285M190.51 450.535C189.484 452.44 188.444 454.422 186.832 455.906C186.323 456.409 185.715 456.802 185.047 457.058C184.379 457.314 183.664 457.429 182.949 457.395C182.402 457.363 181.864 457.241 181.358 457.032C180.827 456.767 180.61 456.552 180.456 456.139C179.865 454.531 180.79 452.573 181.819 451.351C183.043 449.901 184.699 448.879 186.545 448.437C188.192 448.06 189.912 448.151 191.51 448.702C191.17 449.308 190.834 449.918 190.505 450.533" fill="#AFCBE0"/>
<path d="M57.2155 470.929C56.221 472.076 54.1948 472.346 53.0571 471.228C48.9925 467.271 45.609 462.672 43.0427 457.615C38.5713 448.699 36.5451 438.538 38.1363 428.631C40.0299 416.931 47.2834 407.239 55.3564 398.938C57.9926 396.214 62.4667 400.059 59.8146 402.769C55.4413 407.273 51.2589 412.043 48.2196 417.567C43.7818 425.577 42.4041 434.924 44.3423 443.872C46.2098 452.564 50.5738 460.524 56.8999 466.777C58.0403 467.895 58.3003 469.66 57.2023 470.929" fill="#FFD880"/>
</g>
<defs>
<clipPath id="clip0_301_222">
<rect width="418" height="447" fill="white" transform="translate(-22 398)"/>
</clipPath>
</defs>
</svg>
