<svg width="56" height="66" viewBox="0 0 56 66" fill="none" xmlns="http://www.w3.org/2000/svg">
<path d="M40.5 23.25C43.1406 23.25 45.375 21.1172 45.375 18.375C45.375 15.7344 43.1406 13.5 40.5 13.5C37.7578 13.5 35.625 15.7344 35.625 18.375C35.625 21.1172 37.7578 23.25 40.5 23.25ZM24.3516 45.7969L22.8281 49.25H16.125C14.2969 49.25 12.875 50.7734 12.875 52.5C12.875 54.3281 14.2969 55.75 16.125 55.75H23.9453C25.875 55.75 27.7031 54.6328 28.4141 52.8047L29.3281 50.7734L28.2109 50.1641C26.4844 49.0469 25.1641 47.5234 24.3516 45.7969ZM51.875 36.25H47.3047L44.6641 30.8672C43.4453 28.3281 41.1094 26.3984 38.4688 25.6875L31.2578 23.5547C28.3125 22.8438 25.3672 23.5547 23.0312 25.2812L18.9688 28.4297C17.5469 29.4453 17.2422 31.5781 18.3594 33C19.4766 34.4219 21.5078 34.625 22.9297 33.5078L26.9922 30.4609C27.7031 29.8516 28.7188 29.6484 29.5312 29.8516L31.0547 30.2578L27.1953 39.1953C25.9766 42.1406 27.0938 45.6953 29.8359 47.3203L38.4688 52.3984L35.7266 61.3359C35.2188 63.0625 36.1328 64.8906 37.8594 65.3984C38.1641 65.5 38.4688 65.5 38.875 65.5C40.1953 65.5 41.5156 64.6875 41.9219 63.2656L45.1719 53.0078C45.7812 50.875 44.8672 48.6406 42.9375 47.5234L36.7422 43.7656L39.8906 35.8438L41.9219 40.1094C42.7344 41.7344 44.4609 42.75 46.3906 42.75H51.875C53.6016 42.75 55.125 41.3281 55.125 39.5C55.125 37.7734 53.6016 36.25 51.875 36.25Z" fill="#21293A"/>
<rect width="7" height="65" rx="2" fill="#21293A"/>
</svg>
