<svg width="54" height="53" viewBox="0 0 54 53" fill="none" xmlns="http://www.w3.org/2000/svg">
<path d="M52.1875 20.8125L49.9531 18.4766C48.9375 17.5625 47.4141 17.5625 46.5 18.4766L45.8906 19.0859L34.4141 7.60938L35.0234 7C35.9375 6.08594 35.9375 4.5625 35.0234 3.54688L32.6875 1.3125C31.7734 0.296875 30.25 0.296875 29.2344 1.3125L16.6406 13.9062C15.625 14.8203 15.625 16.4453 16.6406 17.3594L18.875 19.6953C19.8906 20.6094 21.4141 20.6094 22.3281 19.6953L22.9375 19.0859L27 23.0469L18.7734 31.375L18.1641 30.7656C16.8438 29.4453 14.8125 29.4453 13.5938 30.7656L1.91406 42.4453C0.59375 43.6641 0.59375 45.6953 1.91406 47.0156L6.48438 51.5859C7.80469 52.9062 9.83594 52.9062 11.0547 51.5859L22.7344 39.9062C24.0547 38.6875 24.0547 36.6562 22.7344 35.3359L22.125 34.7266L30.4531 26.5L34.4141 30.5625L33.8047 31.1719C32.8906 32.0859 32.8906 33.6094 33.8047 34.625L36.1406 36.8594C37.0547 37.875 38.6797 37.875 39.5938 36.8594L52.1875 24.2656C53.2031 23.25 53.2031 21.7266 52.1875 20.8125Z" fill="#21293A"/>
</svg>
