<svg width="60" height="53" viewBox="0 0 60 53" fill="none" xmlns="http://www.w3.org/2000/svg">
<path d="M28.2734 15.2266L33.7578 16.6484C34.1641 16.75 34.3672 17.0547 34.3672 17.4609C34.3672 17.9688 33.9609 18.375 33.4531 18.375H29.8984C29.4922 18.375 29.0859 18.2734 28.7812 18.0703C28.1719 17.8672 27.5625 17.9688 27.1562 18.2734L25.2266 20.1016C25.125 20.2031 25.125 20.3047 25.0234 20.4062C24.9219 20.5078 24.8203 20.7109 24.8203 20.9141C24.8203 21.4219 25.125 21.7266 25.4297 21.9297C26.4453 22.5391 27.6641 23.0469 28.8828 23.1484V24.875C28.8828 25.7891 29.6953 26.5 30.7109 26.5H32.4375C33.4531 26.5 34.2656 25.7891 34.2656 24.875V23.1484C37.5156 22.7422 40.0547 20 39.6484 16.75C39.3438 14.4141 37.4141 12.5859 34.875 11.875L29.3906 10.4531C28.9844 10.3516 28.7812 10.0469 28.7812 9.64062C28.7812 9.13281 29.1875 8.72656 29.6953 8.72656H33.25C33.6562 8.72656 34.0625 8.82812 34.4688 9.03125C34.9766 9.23438 35.5859 9.13281 35.9922 8.82812L37.9219 7C38.0234 6.89844 38.0234 6.79688 38.125 6.69531C38.2266 6.59375 38.3281 6.39062 38.3281 6.1875C38.3281 5.67969 38.0234 5.375 37.7188 5.17188C36.7031 4.5625 35.4844 4.15625 34.2656 3.95312V2.125C34.2656 1.3125 33.4531 0.5 32.4375 0.5H30.7109C29.6953 0.5 28.9844 1.3125 28.9844 2.125V3.95312C25.6328 4.35938 23.0938 7.10156 23.5 10.3516C23.8047 12.6875 25.8359 14.5156 28.2734 15.2266ZM58.1328 33.9141C56.9141 32.7969 55.0859 32.8984 53.7656 33.9141L44.4219 41.3281C43.3047 42.2422 41.8828 42.75 40.3594 42.75H28.375C27.4609 42.75 26.75 42.0391 26.75 41.125C26.75 40.3125 27.4609 39.5 28.375 39.5H36.2969C37.9219 39.5 39.4453 38.4844 39.6484 36.8594C39.6484 36.6562 39.75 36.4531 39.75 36.3516C39.75 36.25 39.75 36.25 39.75 36.25C39.6484 34.5234 38.2266 33 36.5 33H20.25C17.3047 33.1016 14.7656 34.0156 12.6328 35.7422L7.96094 39.5H2.375C1.46094 39.5 0.75 40.3125 0.75 41.125V50.875C0.75 51.7891 1.46094 52.5 2.375 52.5H38.5312C40.0547 52.5 41.4766 51.9922 42.5938 51.0781L58.0312 38.7891C58.7422 38.2812 59.25 37.3672 59.25 36.25C59.25 35.3359 58.7422 34.4219 58.1328 33.9141Z" fill="#21293A"/>
</svg>
