<svg width="40" height="53" viewBox="0 0 40 53" fill="none" xmlns="http://www.w3.org/2000/svg">
<path d="M34.625 7H26.5C26.5 3.44531 23.5547 0.5 20 0.5C16.3438 0.5 13.5 3.44531 13.5 7H5.375C2.63281 7 0.5 9.23438 0.5 11.875V47.625C0.5 50.3672 2.63281 52.5 5.375 52.5H34.625C37.2656 52.5 39.5 50.3672 39.5 47.625V11.875C39.5 9.23438 37.2656 7 34.625 7ZM20 4.5625C21.3203 4.5625 22.4375 5.67969 22.4375 7C22.4375 8.42188 21.3203 9.4375 20 9.4375C18.5781 9.4375 17.5625 8.42188 17.5625 7C17.5625 5.67969 18.5781 4.5625 20 4.5625ZM29.75 35.4375C29.75 35.9453 29.3438 36.25 28.9375 36.25H23.25V41.9375C23.25 42.4453 22.8438 42.75 22.4375 42.75H17.5625C17.0547 42.75 16.75 42.4453 16.75 41.9375V36.25H11.0625C10.5547 36.25 10.25 35.9453 10.25 35.4375V30.5625C10.25 30.1562 10.5547 29.75 11.0625 29.75H16.75V24.0625C16.75 23.6562 17.0547 23.25 17.5625 23.25H22.4375C22.8438 23.25 23.25 23.6562 23.25 24.0625V29.75H28.9375C29.3438 29.75 29.75 30.1562 29.75 30.5625V35.4375ZM29.75 15.9375C29.75 16.4453 29.3438 16.75 28.9375 16.75H11.0625C10.5547 16.75 10.25 16.4453 10.25 15.9375V14.3125C10.25 13.9062 10.5547 13.5 11.0625 13.5H28.9375C29.3438 13.5 29.75 13.9062 29.75 14.3125V15.9375Z" fill="#21293A"/>
</svg>
