<svg width="60" height="53" viewBox="0 0 60 53" fill="none" xmlns="http://www.w3.org/2000/svg">
<path d="M41.5781 9.03125C41.1719 8.625 40.5625 8.625 40.1562 9.03125L18.0156 31.1719L17 40.6172C16.7969 41.8359 17.9141 42.9531 19.1328 42.75L28.5781 41.7344L50.7188 19.5938C51.125 19.1875 51.125 18.5781 50.7188 18.1719L41.5781 9.03125ZM58.0312 6.69531L53.0547 1.71875C51.5312 0.195312 48.9922 0.195312 47.4688 1.71875L43.9141 5.27344C43.5078 5.67969 43.5078 6.28906 43.9141 6.69531L53.0547 15.8359C53.4609 16.2422 54.0703 16.2422 54.4766 15.8359L58.0312 12.2812C59.5547 10.7578 59.5547 8.21875 58.0312 6.69531ZM39.75 35.7422V46H7.25V13.5H30.5078C30.9141 13.5 31.2188 13.3984 31.4219 13.1953L35.4844 9.13281C36.1953 8.32031 35.6875 7 34.5703 7H5.625C2.88281 7 0.75 9.23438 0.75 11.875V47.625C0.75 50.3672 2.88281 52.5 5.625 52.5H41.375C44.0156 52.5 46.25 50.3672 46.25 47.625V31.6797C46.25 30.5625 44.9297 30.0547 44.1172 30.7656L40.0547 34.8281C39.8516 35.0312 39.75 35.3359 39.75 35.7422Z" fill="#21293A"/>
</svg>
