<svg width="66" height="53" viewBox="0 0 66 53" fill="none" xmlns="http://www.w3.org/2000/svg">
<path d="M50.875 23.25C42.75 23.25 36.25 29.8516 36.25 37.875C36.25 46 42.75 52.5 50.875 52.5C58.8984 52.5 65.5 46 65.5 37.875C65.5 29.8516 58.8984 23.25 50.875 23.25ZM57.375 38.5859C57.375 39.0938 56.8672 39.5 56.3594 39.5H50.1641C49.6562 39.5 49.25 39.0938 49.25 38.5859V30.7656C49.25 30.2578 49.6562 29.75 50.1641 29.75H51.4844C51.9922 29.75 52.5 30.2578 52.5 30.7656V36.25H56.3594C56.8672 36.25 57.375 36.7578 57.375 37.2656V38.5859ZM33 37.875C33 35.1328 33.6094 32.3906 34.8281 30.0547C34.0156 29.8516 33.2031 29.75 32.2891 29.75H30.5625C28.3281 30.8672 25.8906 31.375 23.25 31.375C20.6094 31.375 18.0703 30.8672 15.8359 29.75H14.1094C6.59375 29.75 0.5 35.9453 0.5 43.4609V47.625C0.5 50.3672 2.63281 52.5 5.375 52.5H40.6172C35.9453 49.3516 33 43.9688 33 37.875ZM23.25 26.5C30.3594 26.5 36.25 20.7109 36.25 13.5C36.25 6.39062 30.3594 0.5 23.25 0.5C16.0391 0.5 10.25 6.39062 10.25 13.5C10.25 20.7109 16.0391 26.5 23.25 26.5Z" fill="#21293A"/>
</svg>
