<svg width="44" height="53" viewBox="0 0 44 53" fill="none" xmlns="http://www.w3.org/2000/svg">
<path d="M28.5 10.25C31.1406 10.25 33.375 8.11719 33.375 5.375C33.375 2.73438 31.1406 0.5 28.5 0.5C25.7578 0.5 23.625 2.73438 23.625 5.375C23.625 8.11719 25.7578 10.25 28.5 10.25ZM12.3516 32.7969L10.8281 36.25H4.125C2.29688 36.25 0.875 37.7734 0.875 39.5C0.875 41.3281 2.29688 42.75 4.125 42.75H11.9453C13.875 42.75 15.7031 41.6328 16.4141 39.8047L17.3281 37.7734L16.2109 37.1641C14.4844 36.0469 13.1641 34.5234 12.3516 32.7969ZM39.875 23.25H35.3047L32.6641 17.8672C31.4453 15.3281 29.1094 13.3984 26.4688 12.6875L19.2578 10.5547C16.3125 9.84375 13.3672 10.5547 11.0312 12.2812L6.96875 15.4297C5.54688 16.4453 5.24219 18.5781 6.35938 20C7.47656 21.4219 9.50781 21.625 10.9297 20.5078L14.9922 17.4609C15.7031 16.8516 16.7188 16.6484 17.5312 16.8516L19.0547 17.2578L15.1953 26.1953C13.9766 29.1406 15.0938 32.6953 17.8359 34.3203L26.4688 39.3984L23.7266 48.3359C23.2188 50.0625 24.1328 51.8906 25.8594 52.3984C26.1641 52.5 26.4688 52.5 26.875 52.5C28.1953 52.5 29.5156 51.6875 29.9219 50.2656L33.1719 40.0078C33.7812 37.875 32.8672 35.6406 30.9375 34.5234L24.7422 30.7656L27.8906 22.8438L29.9219 27.1094C30.7344 28.7344 32.4609 29.75 34.3906 29.75H39.875C41.6016 29.75 43.125 28.3281 43.125 26.5C43.125 24.7734 41.6016 23.25 39.875 23.25Z" fill="#21293A"/>
</svg>
