<svg width="60" height="53" viewBox="0 0 60 53" fill="none" xmlns="http://www.w3.org/2000/svg">
<path d="M58.6406 24.5703L52.75 19.2891V5.375C52.75 4.5625 51.9375 3.75 51.125 3.75H44.625C43.7109 3.75 43 4.5625 43 5.375V10.6562L32.6406 1.61719C32.0312 1.00781 30.8125 0.5 30 0.5C29.0859 0.5 27.8672 1.00781 27.2578 1.61719L1.25781 24.5703C0.953125 24.875 0.75 25.2812 0.75 25.7891C0.75 26.1953 0.851562 26.5 1.15625 26.8047L3.28906 29.2422C3.59375 29.5469 4 29.75 4.50781 29.75C4.91406 29.75 5.32031 29.6484 5.625 29.3438L7.25 27.9219V49.25C7.25 51.0781 8.67188 52.5 10.5 52.5H49.5C51.2266 52.5 52.75 51.0781 52.75 49.25V27.9219L54.2734 29.3438C54.5781 29.6484 54.9844 29.75 55.3906 29.75C55.8984 29.75 56.3047 29.5469 56.6094 29.2422L58.7422 26.8047C59.0469 26.5 59.1484 26.1953 59.25 25.7891C59.1484 25.2812 58.9453 24.875 58.6406 24.5703ZM30 18.375C33.5547 18.375 36.5 21.3203 36.5 24.875C36.5 28.5312 33.5547 31.375 30 31.375C26.3438 31.375 23.5 28.5312 23.5 24.875C23.5 21.3203 26.3438 18.375 30 18.375ZM41.375 46H18.625C17.7109 46 17 45.2891 17 44.375C17 39.0938 21.3672 34.625 26.75 34.625H33.25C38.5312 34.625 43 39.0938 43 44.375C43 45.2891 42.1875 46 41.375 46Z" fill="#21293A"/>
</svg>
