<svg width="46" height="53" viewBox="0 0 46 53" fill="none" xmlns="http://www.w3.org/2000/svg">
<path d="M13.3516 18.375H17.3125C17.5156 15.6328 18.0234 13.1953 18.7344 11.2656C15.9922 12.5859 13.8594 15.2266 13.3516 18.375ZM13.3516 21.625C13.8594 24.875 15.9922 27.5156 18.7344 28.8359C18.0234 26.9062 17.5156 24.4688 17.3125 21.625H13.3516ZM23 29.6484C23.7109 28.9375 25.0312 26.1953 25.3359 21.625H20.5625C20.8672 26.1953 22.1875 28.9375 23 29.6484ZM20.5625 18.375H25.3359C25.0312 13.9062 23.7109 11.1641 23 10.4531C22.1875 11.1641 20.8672 13.9062 20.5625 18.375ZM27.1641 28.8359C29.9062 27.5156 32.0391 24.875 32.5469 21.625H28.5859C28.3828 24.4688 27.875 26.9062 27.1641 28.8359ZM42.5 0.5H6.75C3.09375 0.5 0.25 3.44531 0.25 7V46C0.25 49.6562 3.09375 52.5 6.75 52.5H42.5C44.2266 52.5 45.75 51.0781 45.75 49.25V3.75C45.75 2.02344 44.2266 0.5 42.5 0.5ZM34.375 42.75H11.625C10.7109 42.75 10 42.0391 10 41.125C10 40.3125 10.7109 39.5 11.625 39.5H34.375C35.1875 39.5 36 40.3125 36 41.125C36 42.0391 35.1875 42.75 34.375 42.75ZM23 33C15.7891 33 10 27.2109 10 20C10 12.8906 15.7891 7 23 7C30.1094 7 36 12.8906 36 20C36 27.2109 30.1094 33 23 33ZM27.1641 11.2656C27.875 13.1953 28.3828 15.6328 28.5859 18.375H32.5469C32.0391 15.2266 29.9062 12.5859 27.1641 11.2656Z" fill="#21293A"/>
</svg>
