<svg width="40" height="53" viewBox="0 0 40 53" fill="none" xmlns="http://www.w3.org/2000/svg">
<path d="M23.25 14.3125V0.5H2.9375C1.51562 0.5 0.5 1.61719 0.5 2.9375V50.0625C0.5 51.4844 1.51562 52.5 2.9375 52.5H37.0625C38.3828 52.5 39.5 51.4844 39.5 50.0625V16.75H25.6875C24.2656 16.75 23.25 15.7344 23.25 14.3125ZM29.3438 25.1797L23.25 34.625L29.3438 44.1719C29.8516 44.9844 29.2422 46 28.3281 46H24.7734C24.2656 46 23.8594 45.7969 23.6562 45.3906C21.625 41.7344 20 38.3828 20 38.3828C19.2891 39.9062 18.9844 40.4141 16.2422 45.3906C16.0391 45.7969 15.6328 46.1016 15.125 46.1016H11.6719C10.6562 46.1016 10.0469 44.9844 10.5547 44.1719L16.75 34.7266L10.5547 25.1797C10.0469 24.3672 10.6562 23.3516 11.6719 23.3516H15.125C15.6328 23.3516 16.0391 23.5547 16.2422 23.9609C18.8828 28.9375 18.2734 27.3125 20 30.8672C20 30.8672 20.6094 29.75 23.6562 23.9609C23.8594 23.5547 24.2656 23.3516 24.7734 23.3516H28.3281C29.2422 23.25 29.8516 24.3672 29.3438 25.1797ZM39.5 12.8906C39.5 12.2812 39.1953 11.6719 38.7891 11.1641L28.8359 1.21094C28.3281 0.804688 27.7188 0.5 27.1094 0.5H26.5V13.5H39.5V12.8906Z" fill="#21293A"/>
</svg>
