<svg width="53" height="47" viewBox="0 0 53 47" fill="none" xmlns="http://www.w3.org/2000/svg">
<path d="M25.375 7.25H31.875C32.6875 7.25 33.5 6.53906 33.5 5.625V2.375C33.5 1.5625 32.6875 0.75 31.875 0.75H25.375C24.4609 0.75 23.75 1.5625 23.75 2.375V5.625C23.75 6.53906 24.4609 7.25 25.375 7.25ZM25.375 20.25H38.375C39.1875 20.25 40 19.5391 40 18.625V15.375C40 14.5625 39.1875 13.75 38.375 13.75H25.375C24.4609 13.75 23.75 14.5625 23.75 15.375V18.625C23.75 19.5391 24.4609 20.25 25.375 20.25ZM51.375 39.75H25.375C24.4609 39.75 23.75 40.5625 23.75 41.375V44.625C23.75 45.5391 24.4609 46.25 25.375 46.25H51.375C52.1875 46.25 53 45.5391 53 44.625V41.375C53 40.5625 52.1875 39.75 51.375 39.75ZM25.375 33.25H44.875C45.6875 33.25 46.5 32.5391 46.5 31.625V28.375C46.5 27.5625 45.6875 26.75 44.875 26.75H25.375C24.4609 26.75 23.75 27.5625 23.75 28.375V31.625C23.75 32.5391 24.4609 33.25 25.375 33.25ZM2.625 13.75H7.5V44.625C7.5 45.5391 8.21094 46.25 9.125 46.25H12.375C13.1875 46.25 14 45.5391 14 44.625V13.75H18.875C20.2969 13.75 21.0078 12.0234 19.9922 11.0078L11.8672 1.25781C11.5625 0.953125 11.1562 0.851562 10.75 0.851562C10.2422 0.851562 9.83594 0.953125 9.53125 1.25781L1.40625 11.0078C0.390625 12.0234 1.10156 13.75 2.625 13.75Z" fill="#21293A"/>
</svg>
