<svg width="40" height="53" viewBox="0 0 40 53" fill="none" xmlns="http://www.w3.org/2000/svg">
<path d="M38.7891 11.1641L28.8359 1.21094C28.3281 0.804688 27.7188 0.5 27.1094 0.5H26.5V13.5H39.5V12.8906C39.5 12.2812 39.1953 11.6719 38.7891 11.1641ZM23.25 14.3125V0.5H2.9375C1.51562 0.5 0.5 1.61719 0.5 2.9375V50.0625C0.5 51.4844 1.51562 52.5 2.9375 52.5H37.0625C38.3828 52.5 39.5 51.4844 39.5 50.0625V16.75H25.6875C24.2656 16.75 23.25 15.7344 23.25 14.3125ZM7 7.8125C7 7.40625 7.30469 7 7.8125 7H15.9375C16.3438 7 16.75 7.40625 16.75 7.8125V9.4375C16.75 9.94531 16.3438 10.25 15.9375 10.25H7.8125C7.30469 10.25 7 9.94531 7 9.4375V7.8125ZM7 15.9375V14.3125C7 13.9062 7.30469 13.5 7.8125 13.5H15.9375C16.3438 13.5 16.75 13.9062 16.75 14.3125V15.9375C16.75 16.4453 16.3438 16.75 15.9375 16.75H7.8125C7.30469 16.75 7 16.4453 7 15.9375ZM21.625 42.75V45.1875C21.625 45.6953 21.2188 46 20.8125 46H19.1875C18.6797 46 18.375 45.6953 18.375 45.1875V42.75C17.1562 42.75 16.0391 42.3438 15.125 41.6328C14.7188 41.3281 14.7188 40.7188 15.125 40.4141L16.2422 39.2969C16.5469 38.9922 16.9531 38.9922 17.2578 39.1953C17.6641 39.3984 18.1719 39.5 18.5781 39.5H21.4219C22.1328 39.5 22.6406 38.9922 22.6406 38.1797C22.6406 37.5703 22.3359 37.0625 21.7266 36.9609L17.1562 35.5391C15.3281 34.9297 14.0078 33.2031 14.0078 31.1719C14.0078 28.6328 15.9375 26.6016 18.2734 26.6016V24.0625C18.2734 23.6562 18.6797 23.25 19.0859 23.25H20.7109C21.2188 23.25 21.5234 23.6562 21.5234 24.0625V26.6016C22.7422 26.6016 23.8594 27.0078 24.7734 27.7188C25.1797 28.0234 25.1797 28.6328 24.7734 28.9375L23.6562 30.0547C23.3516 30.3594 22.9453 30.3594 22.6406 30.1562C22.2344 29.9531 21.7266 29.75 21.3203 29.75H18.4766C17.7656 29.75 17.2578 30.3594 17.2578 31.1719C17.2578 31.7812 17.5625 32.2891 18.1719 32.3906L22.7422 33.8125C24.5703 34.3203 25.8906 36.1484 25.8906 38.1797C25.8906 40.7188 23.9609 42.75 21.625 42.75Z" fill="#21293A"/>
</svg>
