<svg width="66" height="39" viewBox="0 0 66 39" fill="none" xmlns="http://www.w3.org/2000/svg">
<path d="M62.25 0H3.75C1.92188 0 0.5 1.52344 0.5 3.25V35.75C0.5 37.5781 1.92188 39 3.75 39H62.25C63.9766 39 65.5 37.5781 65.5 35.75V3.25C65.5 1.52344 63.9766 0 62.25 0ZM5.375 34.125V27.625C8.92969 27.625 11.875 30.5703 11.875 34.125H5.375ZM5.375 11.375V4.875H11.875C11.875 8.53125 8.92969 11.375 5.375 11.375ZM33 29.25C28.4297 29.25 24.875 24.9844 24.875 19.5C24.875 14.1172 28.4297 9.75 33 9.75C37.4688 9.75 41.125 14.1172 41.125 19.5C41.125 24.9844 37.4688 29.25 33 29.25ZM60.625 34.125H54.125C54.125 30.5703 56.9688 27.625 60.625 27.625V34.125ZM60.625 11.375C56.9688 11.375 54.125 8.53125 54.125 4.875H60.625V11.375Z" fill="#21293A"/>
</svg>
