<svg width="66" height="53" viewBox="0 0 66 53" fill="none" xmlns="http://www.w3.org/2000/svg">
<path d="M60.3203 24.875L64.9922 20.3047C65.6016 19.6953 65.6016 18.5781 64.9922 17.9688L62.6562 15.6328C62.0469 15.0234 60.9297 15.0234 60.3203 15.6328L55.75 20.3047L51.0781 15.6328C50.4688 15.0234 49.3516 15.0234 48.7422 15.6328L46.4062 17.9688C45.7969 18.5781 45.7969 19.6953 46.4062 20.3047L51.0781 24.875L46.4062 29.5469C45.7969 30.1562 45.7969 31.2734 46.4062 31.8828L48.7422 34.2188C49.3516 34.8281 50.4688 34.8281 51.0781 34.2188L55.75 29.5469L60.3203 34.2188C60.9297 34.8281 62.0469 34.8281 62.6562 34.2188L64.9922 31.8828C65.6016 31.2734 65.6016 30.1562 64.9922 29.5469L60.3203 24.875ZM23.25 26.5C30.3594 26.5 36.25 20.7109 36.25 13.5C36.25 6.39062 30.3594 0.5 23.25 0.5C16.0391 0.5 10.25 6.39062 10.25 13.5C10.25 20.7109 16.0391 26.5 23.25 26.5ZM32.2891 29.75H30.5625C28.3281 30.8672 25.8906 31.375 23.25 31.375C20.6094 31.375 18.0703 30.8672 15.8359 29.75H14.1094C6.59375 29.75 0.5 35.9453 0.5 43.4609V47.625C0.5 50.3672 2.63281 52.5 5.375 52.5H41.125C43.7656 52.5 46 50.3672 46 47.625V43.4609C46 35.9453 39.8047 29.75 32.2891 29.75Z" fill="#21293A"/>
</svg>
