<svg width="60" height="39" viewBox="0 0 60 39" fill="none" xmlns="http://www.w3.org/2000/svg">
<path d="M13.75 9.75V29.25H46.25V9.75H13.75ZM54.375 19.5C54.375 16.8594 56.5078 14.625 59.25 14.625V4.875C59.25 2.23438 57.0156 0 54.375 0H5.625C2.88281 0 0.75 2.23438 0.75 4.875V14.625C3.39062 14.625 5.625 16.8594 5.625 19.5C5.625 22.2422 3.39062 24.375 0.75 24.375V34.125C0.75 36.8672 2.88281 39 5.625 39H54.375C57.0156 39 59.25 36.8672 59.25 34.125V24.375C56.5078 24.375 54.375 22.2422 54.375 19.5ZM49.5 8.9375V30.0625C49.5 31.4844 48.3828 32.5 47.0625 32.5H12.9375C11.5156 32.5 10.5 31.4844 10.5 30.0625V8.9375C10.5 7.61719 11.5156 6.5 12.9375 6.5H47.0625C48.3828 6.5 49.5 7.61719 49.5 8.9375Z" fill="#21293A"/>
</svg>
